<svg id="Warstwa_1" data-name="Warstwa 1" xmlns="http://www.w3.org/2000/svg" viewBox="0 0 300 205"><defs><style>.cls-1{fill:#fff;}.cls-2{fill:#f42742;}</style></defs><title>horoskop</title><rect class="cls-1" width="300" height="205"/><path class="cls-2" d="M172.48,103.6l-1.19-2.31c11-5.66,28.9-20.75,32.72-26.71l.16-.22c0-2.19-.43-11.16-9.93-23.81l-.15-.19-.07-.23c-.89-3.13-5.76-7.93-14.67-11.59a46.51,46.51,0,0,0-9.32-2.76l4,6.85a1.7,1.7,0,0,1,.08,1.58,1.82,1.82,0,0,1-1.36,1L163.26,47a43.51,43.51,0,0,0,8.38,4.52c5.52,2.26,11.26,3.46,15.74,3.29l.68,0,.41.54c8.79,11.72,8.47,16.49,8.31,18.78,0,.13,0,.26,0,.37a2.16,2.16,0,0,1-.65,1.43c-3.3,5-14.3,14.92-23.72,21.37l-1.47-2.14c10-6.83,20.42-16.6,23.1-20.78l.16-.22v-.2c.12-1.79.4-5.95-7.4-16.51a43.65,43.65,0,0,1-16.13-3.5,43.69,43.69,0,0,1-10.56-6,1.71,1.71,0,0,1-.61-1.76,1.82,1.82,0,0,1,1.46-1.32l10.26-1.86-4.28-7.32a1.71,1.71,0,0,1,.06-1.82,1.9,1.9,0,0,1,1.83-.79,47.93,47.93,0,0,1,11.55,3.19c8.39,3.45,14.66,8.54,16.1,13,10,13.4,10.41,22.9,10.3,25.5a2.13,2.13,0,0,1-.67,1.46C201.84,82.57,183.91,97.72,172.48,103.6Z"/><path class="cls-2" d="M127.73,103.8l-.45-.45-.15.3C116,98,98.28,82.77,93.9,76.14a2.15,2.15,0,0,1-.67-1.48c-.11-2.58.31-12.09,10.3-25.48,1.44-4.5,7.72-9.59,16.1-13a47.93,47.93,0,0,1,11.55-3.19,1.9,1.9,0,0,1,1.82.79,1.7,1.7,0,0,1,.07,1.81l-4.29,7.34,10.26,1.86a1.82,1.82,0,0,1,1.46,1.32,1.71,1.71,0,0,1-.61,1.77,43.68,43.68,0,0,1-10.55,6,43.53,43.53,0,0,1-16.14,3.5c-7.8,10.56-7.52,14.72-7.4,16.51v.2l0,0,.12.19c2.63,4.09,12.61,13.53,22.74,20.53L127.25,97c-9.29-6.42-20.12-16.21-23.35-21.11a2.14,2.14,0,0,1-.65-1.4c0-.14,0-.26,0-.39-.15-2.29-.48-7.05,8.31-18.78l.41-.54.68,0c4.48.16,10.22-1,15.74-3.29A43.55,43.55,0,0,0,136.74,47l-9.54-1.73a1.82,1.82,0,0,1-1.35-1,1.71,1.71,0,0,1,.09-1.59l4-6.84a46.52,46.52,0,0,0-9.31,2.76C111.72,42.19,106.85,47,106,50.12l-.07.23-.15.19c-9.52,12.68-10,21.67-9.93,23.81l0,0,.12.19c3.6,5.6,20.93,20.94,32.33,26.76l.71.36v.79h-1.29Z"/><path class="cls-2" d="M168.81,117.06l-2.24-1.31,1.12.65-1.13-.64,0-.09c.39-.65.71-1.24,1-1.82l.05-.1a27.88,27.88,0,0,0,1.28-3A31.24,31.24,0,0,0,169.15,91a26.94,26.94,0,0,0-1.58-3.88,23.31,23.31,0,0,0-8.41-9.53l-1-.61.5-1.05a8.82,8.82,0,0,0-.36-8.27l-8.21,4.69-8.66-4.94a8.86,8.86,0,0,0-.51,8.53l.5,1-1,.61C133.37,82,129,90.76,129,100.51a30.23,30.23,0,0,0,2.88,13h0l.12.24c.31.64.65,1.27,1,1.85l.1.2-1,.39-1.31.76v0c-.35-.58-.68-1.18-1-1.8l-.25-.21v-.3a32.84,32.84,0,0,1-3.13-14.12c0-10.22,4.49-19.51,11.78-24.54a11.46,11.46,0,0,1,1.58-10.68,1.9,1.9,0,0,1,2.44-.48l7.93,4.53L157.61,65a1.89,1.89,0,0,1,2.47.54A11.43,11.43,0,0,1,161.45,76a26.21,26.21,0,0,1,8.44,10,29.54,29.54,0,0,1,1.73,4.24,33.84,33.84,0,0,1-.25,21.41,30.92,30.92,0,0,1-1.28,3.09v.2l-.22.24c-.3.6-.63,1.22-1,1.88Z"/><path class="cls-2" d="M139.81,171.91a4.43,4.43,0,0,1-.76-.07,4.74,4.74,0,0,1-3.15-2.2c-1.57-2.39-1.91-6.29-.91-10.41a16.57,16.57,0,0,1,4.78-8.54,1.3,1.3,0,0,1,1.68,2,13.93,13.93,0,0,0-3.93,7.17c-.81,3.33-.59,6.62.56,8.37a2.19,2.19,0,0,0,1.42,1.07c1.38.24,3.19-1.17,4.61-3.59a1.3,1.3,0,0,1,2.24,1.32C144.51,170.13,142.12,171.91,139.81,171.91Z"/><path class="cls-2" d="M149.8,172.07c-2.38,0-4.55-2-5.79-5.26a1.3,1.3,0,1,1,2.43-.92c.84,2.21,2.12,3.58,3.36,3.58s2.53-1.37,3.37-3.57a1.3,1.3,0,0,1,2.43.92C154.36,170.11,152.19,172.07,149.8,172.07Z"/><path class="cls-2" d="M159.79,171.91c-2.3,0-4.69-1.77-6.52-4.88a1.3,1.3,0,1,1,2.24-1.32c1.42,2.41,3.22,3.81,4.59,3.58a2.21,2.21,0,0,0,1.43-1.07c1.15-1.75,1.38-5,.58-8.37a13.86,13.86,0,0,0-3.93-7.2,1.3,1.3,0,1,1,1.67-2,16.5,16.5,0,0,1,4.78,8.58c1,4.12.64,8-.94,10.4a4.75,4.75,0,0,1-3.16,2.2A4.43,4.43,0,0,1,159.79,171.91Z"/><path class="cls-2" d="M140.89,148.83l-2.6-.05c.38-18.49-8.53-33.63-8.62-33.78l2.23-1.33C132.29,114.3,141.29,129.56,140.89,148.83Z"/><path class="cls-2" d="M149.8,156.73a16.33,16.33,0,0,1-2.44-.18,14.67,14.67,0,0,1-2.58-.61,10.55,10.55,0,0,1-5.22-3.49,6.11,6.11,0,0,1-1.26-3.65h2.6a3.49,3.49,0,0,0,.75,2.1,8,8,0,0,0,4,2.58,12.11,12.11,0,0,0,2.15.5,14.17,14.17,0,0,0,4.14,0,12.38,12.38,0,0,0,2.14-.5,8,8,0,0,0,4-2.59,3.18,3.18,0,0,0,.65-2c0-.07,0-.16,0-.25l-.22-.18.23-.64a71.63,71.63,0,0,1,9-34.09l2.22,1.34c-.09.14-8.62,14.51-8.67,32.38l0,0,0,.6v1.28h0a5.71,5.71,0,0,1-1.15,3.11,10.53,10.53,0,0,1-5.23,3.51,14.94,14.94,0,0,1-2.57.6A16.75,16.75,0,0,1,149.8,156.73Z"/><path class="cls-2" d="M176.24,114.2a32.41,32.41,0,0,1-6.8-.64A1.3,1.3,0,1,1,170,111c6.45,1.42,18,.36,26.22-3.86a1.3,1.3,0,0,1,1.19,2.31C191.1,112.72,182.9,114.2,176.24,114.2Z"/><path class="cls-2" d="M192,123.83a57.06,57.06,0,0,1-23.52-5.64l-1-.53-.33-.18a1.3,1.3,0,0,1,.57-2.46h.33l.67.36.92.5c5.76,2.87,18.46,7.09,29.41,4.61a1.3,1.3,0,0,1,.57,2.53A34.61,34.61,0,0,1,192,123.83Z"/><path class="cls-2" d="M195.12,134.5H195c-13.69-.95-25.52-8.45-30.12-13.27a1.3,1.3,0,1,1,1.88-1.79c4.16,4.35,15.56,11.58,28.43,12.47a1.3,1.3,0,0,1-.09,2.59Z"/><path class="cls-2" d="M122.85,114.08c-6.73,0-14.84-1.44-21-4.6a1.3,1.3,0,0,1,1.19-2.31c8,4.12,20,5.12,26.49,3.69a1.3,1.3,0,0,1,.56,2.54A34.59,34.59,0,0,1,122.85,114.08Z"/><path class="cls-2" d="M107.29,123.83a34.61,34.61,0,0,1-7.65-.81,1.3,1.3,0,0,1,.57-2.53c10.95,2.48,23.65-1.74,29.43-4.62l.32-.15,1.36-.61a1.3,1.3,0,1,1,1.06,2.37l-1.37.61-.22.1A57,57,0,0,1,107.29,123.83Z"/><path class="cls-2" d="M104.15,134.5a1.3,1.3,0,0,1-.09-2.59c12.49-.86,23.86-8.32,28.46-13.12a1.3,1.3,0,0,1,1.88,1.79c-4.87,5.09-16.93,13-30.15,13.92Z"/><path class="cls-2" d="M180.58,155.16a1.3,1.3,0,0,1-1.11-2c27.76-45.7.33-74.16-8.74-81.79a2.79,2.79,0,0,0-3.49.05l-6.52,6A1.3,1.3,0,0,1,159,75.51l6.52-6a5.39,5.39,0,0,1,6.92-.12c9.47,8,38.12,37.66,9.28,85.13A1.3,1.3,0,0,1,180.58,155.16Z"/><path class="cls-2" d="M119.07,155.16a1.3,1.3,0,0,1-1.11-.62c-28.83-47.47-.18-77.16,9.28-85.13a5.39,5.39,0,0,1,6.92.12l6.52,6a1.3,1.3,0,1,1-1.76,1.91l-6.52-6a2.79,2.79,0,0,0-3.49-.05c-9.07,7.63-36.5,36.09-8.74,81.79a1.3,1.3,0,0,1-1.11,2Z"/><path class="cls-2" d="M144.25,122.14a4.59,4.59,0,0,1-2.06-.49L140,120.56a1.3,1.3,0,0,1,.74-2.45c3.63.45,5.71-2,6.79-4l1-2.63a1.3,1.3,0,0,1,2.47.79,13.11,13.11,0,0,1-1.17,3l-1.7,4.29a4.05,4.05,0,0,1-2.37,2.3A4.45,4.45,0,0,1,144.25,122.14Z"/><path class="cls-2" d="M155.34,122.14a4.44,4.44,0,0,1-1.58-.29,4.05,4.05,0,0,1-2.37-2.3l-1.7-4.29a13.12,13.12,0,0,1-1.17-3,1.3,1.3,0,0,1,2.47-.79l1,2.62c1.08,2,3.16,4.45,6.8,4a1.3,1.3,0,0,1,.74,2.45l-2.17,1.09A4.59,4.59,0,0,1,155.34,122.14Z"/></svg>