<svg id="Warstwa_1" data-name="Warstwa 1" xmlns="http://www.w3.org/2000/svg" viewBox="0 0 300 205"><defs><style>.cls-1{fill:#fff;}.cls-2{fill:#f42742;}</style></defs><title>horoskop</title><rect class="cls-1" width="300" height="205"/><path class="cls-2" d="M150,69.51c-7.05,0-13.25-2.11-15.79-5.38a1.3,1.3,0,0,1,2-1.59c2,2.58,7.66,4.38,13.74,4.38s11.74-1.8,13.74-4.38a1.3,1.3,0,0,1,2,1.59C163.25,67.4,157.05,69.51,150,69.51Z"/><path class="cls-2" d="M162.8,45.93a100.21,100.21,0,0,0-25.61,0l-.34-2.57a102.81,102.81,0,0,1,26.3,0Z"/><path class="cls-2" d="M150,166.39c-7.73,0-13-2.45-16.51-7.7-3.15-4.69-4.66-11.13-6.29-19.06v-.06l-11.65-74.1,2.56-.41.37,2.31,11.28,71.77c3.16,15.29,5.83,24.65,20.26,24.65s17.2-9.37,20.26-24.65l11.64-74.08,2.56.4-11.66,74.16C170,153.39,167.4,166.39,150,166.39Z"/><path class="cls-2" d="M150,172.08a17.18,17.18,0,1,1,17.18-17.18A17.2,17.2,0,0,1,150,172.08Zm0-31.76a14.58,14.58,0,1,0,14.58,14.58A14.6,14.6,0,0,0,150,140.32Z"/><path class="cls-2" d="M150,160a1.3,1.3,0,0,1-1.26-1.61,14.27,14.27,0,0,1,1.29-3.25l1.89-4.7a4.32,4.32,0,0,1,2.53-2.44,4.85,4.85,0,0,1,3.89.23l2.38,1.21a1.3,1.3,0,0,1-.75,2.44c-4-.52-6.35,2.13-7.57,4.35l-1.19,3A1.3,1.3,0,0,1,150,160Z"/><path class="cls-2" d="M149.9,160a1.3,1.3,0,0,1-1.2-.81l-1.16-2.88c-1.21-2.24-3.54-4.95-7.6-4.43a1.3,1.3,0,0,1-.75-2.44l2.38-1.21a4.84,4.84,0,0,1,3.89-.23,4.32,4.32,0,0,1,2.53,2.44l1.89,4.7a14.28,14.28,0,0,1,1.29,3.25A1.3,1.3,0,0,1,149.9,160Z"/><path class="cls-2" d="M127,105.73a9.44,9.44,0,0,1-5.58-2l1.56-2.08c2.4,1.81,5.39,2,6.66.37a3.31,3.31,0,0,0,.43-3,7,7,0,0,0-2.48-3.55,6.11,6.11,0,0,0-5.52-1.37l-.86-2.45a8.61,8.61,0,0,1,8,1.78,9.57,9.57,0,0,1,3.37,4.9,5.55,5.55,0,0,1-5.57,7.35Z"/><path class="cls-2" d="M172.59,105.73A5.54,5.54,0,0,1,167,98.37a9.57,9.57,0,0,1,3.37-4.9,8.6,8.6,0,0,1,8-1.78l-.86,2.45A6.11,6.11,0,0,0,172,95.51a7,7,0,0,0-2.48,3.55,3.31,3.31,0,0,0,.43,3c1.27,1.6,4.25,1.44,6.66-.37l1.56,2.08A9.44,9.44,0,0,1,172.59,105.73Z"/><path class="cls-2" d="M109.72,71.08a24.58,24.58,0,0,1-4.12-.37c-.89-.15-1.72-.27-2.51-.38l.35-2.57c.82.11,1.67.24,2.59.39,5.68,1,8.73-.33,10.29-1.58l1.63,2C116.43,69.82,113.85,71.08,109.72,71.08Z"/><path class="cls-2" d="M101.34,94a24,24,0,0,1-11.68-3l1.26-2.27a21.14,21.14,0,0,0,27.17-5.57l.56-.78,2.13,1.49c-.2.29-.4.57-.61.85A23.44,23.44,0,0,1,101.34,94Z"/><path class="cls-2" d="M111.46,130.72a2.26,2.26,0,0,1-.51-.06c-9-2-25.48-7.68-34.68-22.49C69.49,97.25,68.05,83.43,72,67.08c4-16.8,11.71-27.54,22.79-31.92,19.47-7.71,42.15,6.94,43.1,7.57l.66.44-.08.79c-.07.61-1.82,15-21,22.53l-.23.09H117a25.56,25.56,0,0,0-13.46,3.82,25.09,25.09,0,0,0-12,20.47v0c0,.29,0,.57,0,.87,0,.45,0,.92,0,1.44,1,17.2,13.66,28.4,21.14,33.55a2.19,2.19,0,0,1-1.23,4Zm-4.52-95.18a30.3,30.3,0,0,0-11.22,2C85.48,41.63,78.34,51.76,74.51,67.69c-3.77,15.65-2.43,28.81,4,39.12,8.05,13,22.14,18.53,31,20.84-8-5.87-19.57-17.29-20.54-34.32,0-.57,0-1.08,0-1.58,0-.33,0-.66,0-1a27.68,27.68,0,0,1,13.25-22.58A28.15,28.15,0,0,1,116.76,64c15-6,18.33-16.58,19-19.52C132.64,42.59,120.07,35.55,106.94,35.55Z"/><path class="cls-2" d="M190.28,71.08c-4.13,0-6.71-1.26-8.23-2.49l1.63-2c1.56,1.25,4.61,2.55,10.29,1.58.93-.16,1.78-.28,2.6-.39l.35,2.57c-.79.11-1.61.23-2.51.38A24.56,24.56,0,0,1,190.28,71.08Z"/><path class="cls-2" d="M198.66,94a23.44,23.44,0,0,1-18.83-9.32c-.21-.28-.41-.56-.61-.85l2.13-1.49.56.78a21.14,21.14,0,0,0,27.17,5.57L210.35,91A24,24,0,0,1,198.66,94Z"/><path class="cls-2" d="M188.54,130.72a2.19,2.19,0,0,1-1.22-4c7.47-5.15,20.16-16.35,21.14-33.55,0-.51,0-1,0-1.43,0-.29,0-.58,0-.87a25.1,25.1,0,0,0-12-20.49h0A25.56,25.56,0,0,0,183,66.56h-.25l-.23-.09c-19.15-7.56-20.9-21.92-21-22.53l-.08-.79.66-.44c1-.63,23.63-15.27,43.1-7.57C216.3,39.54,224,50.28,228,67.08c3.94,16.35,2.49,30.17-4.29,41.1C214.52,123,198,128.63,189,130.67A2.25,2.25,0,0,1,188.54,130.72Zm9.28-62.55a27.68,27.68,0,0,1,13.25,22.59c0,.31,0,.64,0,1,0,.49,0,1,0,1.57-1,17-12.59,28.46-20.54,34.33,8.88-2.31,23-7.87,31-20.83,6.4-10.31,7.74-23.47,4-39.12-3.84-15.93-11-26.06-21.22-30.12-16.39-6.49-36.06,4.5-40,6.88.62,3,3.82,13.44,19,19.52a28.15,28.15,0,0,1,14.57,4.21Z"/><ellipse class="cls-2" cx="175.39" cy="98.01" rx="2.09" ry="1.49" transform="translate(-22.14 61.3) rotate(-18.67)"/><path class="cls-2" d="M176.23,100.5c-1.93.65-3.88.07-4.34-1.31s.73-3,2.66-3.67,3.88-.07,4.34,1.31S178.16,99.84,176.23,100.5Zm-1-2.81c-.25.09-.41.3-.35.48a.43.43,0,0,0,.57.17c.25-.09.41-.3.35-.48A.43.43,0,0,0,175.28,97.68Z"/><ellipse class="cls-2" cx="124.16" cy="98.01" rx="1.49" ry="2.09" transform="translate(-8.43 184.27) rotate(-71.33)"/><path class="cls-2" d="M120.67,96.82c.46-1.37,2.41-2,4.34-1.31s3.12,2.3,2.66,3.67-2.41,2-4.34,1.31S120.2,98.2,120.67,96.82Zm3,1c-.06.18.1.39.35.48a.43.43,0,0,0,.57-.17c.06-.18-.1-.39-.35-.48A.43.43,0,0,0,123.71,97.85Z"/></svg>