<svg id="Warstwa_1" data-name="Warstwa 1" xmlns="http://www.w3.org/2000/svg" viewBox="0 0 300 205"><defs><style>.cls-1{fill:#fff;}.cls-2{fill:#f42742;}</style></defs><title>horoskop</title><rect class="cls-1" width="300" height="205"/><polygon class="cls-2" points="114.85 48.29 114.71 47.7 116 47.7 117.17 47.13 117.31 47.72 114.71 47.72 116.01 47.72 114.85 48.29"/><path class="cls-2" d="M150,164.21a30.28,30.28,0,0,1-30.21-28.51l-5.06-87.65,0,0v-.27l-.11-2,0-.12a5.62,5.62,0,0,1,.38-1.38c2.63-6.53,17.35-11.28,35-11.28s32.38,4.75,35,11.29a5.59,5.59,0,0,1,.38,1.37l0,.12-.12,2h0l0,.35-5.06,87.66A30.28,30.28,0,0,1,150,164.21ZM117.31,47.67l5.08,87.89a27.66,27.66,0,0,0,55.23,0l5.07-87.88,0-.31.09-1.55a3.15,3.15,0,0,0-.19-.63C180.69,40.44,168,35.52,150,35.52s-30.69,4.91-32.61,9.66a3.19,3.19,0,0,0-.19.64Z"/><path class="cls-2" d="M150,172.07a20.54,20.54,0,1,1,20.54-20.54A20.57,20.57,0,0,1,150,172.07Zm0-38.49a17.95,17.95,0,1,0,17.95,17.95A18,18,0,0,0,150,133.58Z"/><path class="cls-2" d="M143.28,153.15h-3.14a5.48,5.48,0,0,1-4-1.76,4.86,4.86,0,0,1-1.29-3.74l.54-5.95a16.58,16.58,0,0,1,.38-4.06,1.3,1.3,0,0,1,2.56.41L138,141.7c.07,3.06,1.09,7.26,5.76,8.93a1.3,1.3,0,0,1-.44,2.52Z"/><path class="cls-2" d="M156.72,153.15a1.3,1.3,0,0,1-.44-2.52C161,149,162,144.76,162,141.7l-.33-3.66a1.3,1.3,0,0,1,2.56-.41,16.58,16.58,0,0,1,.38,4.06l.54,5.95a4.86,4.86,0,0,1-1.29,3.74,5.48,5.48,0,0,1-4,1.76h-3.14Z"/><path class="cls-2" d="M183.49,65.07l-.57-2.53A53,53,0,0,0,217,38.38a1,1,0,0,0,.14-.53,1.1,1.1,0,0,0-.23-.67,1.06,1.06,0,0,0-1.37-.27c-16,8.92-26.66,9.9-31.61,9.69l.11-2.59c4.68.2,14.82-.75,30.23-9.36a3.65,3.65,0,0,1,4.68.94,3.71,3.71,0,0,1,.78,2.27,3.62,3.62,0,0,1-.5,1.84A55.66,55.66,0,0,1,183.49,65.07Z"/><path class="cls-2" d="M116.51,65.07A55.66,55.66,0,0,1,80.74,39.69a3.61,3.61,0,0,1-.5-1.84A3.71,3.71,0,0,1,81,35.59a3.64,3.64,0,0,1,4.69-.94c15.41,8.61,25.55,9.56,30.23,9.36L116,46.6c-5,.21-15.64-.77-31.61-9.69a1.06,1.06,0,0,0-1.37.27,1.1,1.1,0,0,0-.23.67,1,1,0,0,0,.14.52,53,53,0,0,0,34.1,24.17Z"/><path class="cls-2" d="M123.84,104.55a9.3,9.3,0,0,1-5.5-2l1.56-2.08c2.35,1.77,5.28,1.93,6.52.36a3.23,3.23,0,0,0,.42-2.91,6.83,6.83,0,0,0-2.43-3.48A6,6,0,0,0,119,93.15l-.86-2.45A8.49,8.49,0,0,1,126,92.46a9.43,9.43,0,0,1,3.32,4.83,5.47,5.47,0,0,1-5.49,7.26Z"/><path class="cls-2" d="M176.38,104.55a5.48,5.48,0,0,1-5.49-7.26,9.44,9.44,0,0,1,3.33-4.83,8.48,8.48,0,0,1,7.88-1.76l-.86,2.45a6,6,0,0,0-5.4,1.34A6.84,6.84,0,0,0,173.39,98a3.23,3.23,0,0,0,.42,2.91c1.24,1.57,4.16,1.41,6.52-.36l1.56,2.08A9.3,9.3,0,0,1,176.38,104.55Z"/><path class="cls-2" d="M99.68,93A23.91,23.91,0,0,1,84.9,87.9c-.52-.38-6.53-4.85-6.9-10a7,7,0,0,1,2.36-5.69C84.94,67.81,91.58,66,100.07,67c1.31.14,2.68.33,4.17.59,9.41,1.6,11.47-3.1,11.55-3.3l2.42.94c-.11.28-2.79,6.89-14.4,4.92-1.44-.25-2.76-.43-4-.57-7.8-.84-13.57.64-17.63,4.54a4.44,4.44,0,0,0-1.57,3.63c.24,3.36,4.3,7,5.85,8.1l0,0a21.26,21.26,0,0,0,15.88,4.41,20.17,20.17,0,0,0,13.7-8q.28-.37.55-.77L118.76,83q-.3.43-.61.84a22.75,22.75,0,0,1-15.44,9A23.47,23.47,0,0,1,99.68,93Z"/><path class="cls-2" d="M122.25,140l-1.53-2.1c13.65-10,16.89-30.3,7.55-47.31-8.35-15.2-24.55-23.56-39.43-20.37l-.13.06h-.35V69l-.53-1.17L88,67.8l.16,0c16-3.53,33.49,5.36,42.42,21.62C140.52,107.54,136.95,129.31,122.25,140Z"/><path class="cls-2" d="M200.32,93a23.42,23.42,0,0,1-3-.2,22.75,22.75,0,0,1-15.44-9q-.31-.41-.61-.84l2.14-1.47q.27.39.55.77a20.17,20.17,0,0,0,13.7,8,21.27,21.27,0,0,0,15.88-4.41l.05,0c1.55-1.11,5.61-4.74,5.85-8.1a4.44,4.44,0,0,0-1.57-3.63c-4.06-3.9-9.83-5.38-17.63-4.54-1.26.14-2.57.32-4,.57-11.62,2-14.3-4.63-14.4-4.92l2.42-.94c.08.2,2.14,4.9,11.55,3.3,1.5-.25,2.86-.45,4.17-.59,8.49-.92,15.12.85,19.71,5.25A7,7,0,0,1,222,77.9c-.37,5.15-6.38,9.62-6.9,10A23.91,23.91,0,0,1,200.32,93Z"/><path class="cls-2" d="M177.75,140c-14.7-10.73-18.27-32.5-8.3-50.65,8.93-16.26,26.38-25.15,42.42-21.62l.16,0,.14.07-.53,1.07v1.41l-.32-.08v0c-14.93-3.28-31.21,5.08-39.59,20.33-9.34,17-6.09,37.35,7.55,47.31Z"/><ellipse class="cls-2" cx="177.9" cy="97.01" rx="2.09" ry="1.49" transform="translate(-21.69 62.05) rotate(-18.67)"/><path class="cls-2" d="M178.74,99.5c-1.93.65-3.88.07-4.34-1.31s.73-3,2.66-3.67,3.88-.07,4.34,1.31S180.67,98.85,178.74,99.5Zm-1-2.81c-.25.09-.41.3-.35.48a.43.43,0,0,0,.57.17c.25-.09.41-.3.35-.48A.43.43,0,0,0,177.79,96.68Z"/><ellipse class="cls-2" cx="121.19" cy="97.01" rx="1.49" ry="2.09" transform="translate(-9.5 180.77) rotate(-71.33)"/><path class="cls-2" d="M117.7,95.83c.46-1.37,2.41-2,4.34-1.31s3.12,2.3,2.66,3.67-2.41,2-4.34,1.31S117.23,97.2,117.7,95.83Zm3,1c-.06.18.1.39.35.48a.43.43,0,0,0,.57-.17c.06-.18-.1-.39-.35-.48A.43.43,0,0,0,120.74,96.85Z"/></svg>