<svg id="Warstwa_1" data-name="Warstwa 1" xmlns="http://www.w3.org/2000/svg" viewBox="0 0 300 205"><defs><style>.cls-1{fill:#fff;}.cls-2{fill:#f42742;}</style></defs><title>horoskop</title><rect class="cls-1" width="300" height="205"/><path class="cls-2" d="M163.17,46.64a1.3,1.3,0,0,1-1.17-.73c-3.17-6.5-7.68-10.38-12.07-10.38S141,39.41,137.87,45.91a1.3,1.3,0,0,1-2.33-1.14c3.67-7.53,8.92-11.84,14.4-11.84s10.73,4.32,14.4,11.84a1.3,1.3,0,0,1-1.17,1.87Z"/><path class="cls-2" d="M156.38,153.13a1.3,1.3,0,0,1-1.3-1.3V86.3l.57-.39c6-4,9.86-13.55,9.86-24.27,0-.76,0-3.55,0-4.2a1.3,1.3,0,1,1,2.59-.13c0,.75.05,3.66.05,4.33,0,11.23-4.07,21.34-10.43,26v64.17A1.3,1.3,0,0,1,156.38,153.13Z"/><path class="cls-2" d="M143.5,153.14a1.3,1.3,0,0,1-1.3-1.3V87.66c-6.36-4.69-10.43-14.79-10.43-26,0-.74,0-3.58.05-4.32a1.3,1.3,0,1,1,2.59.1c0,.66,0,3.48,0,4.21,0,10.72,3.87,20.25,9.86,24.27l.57.39v65.55A1.3,1.3,0,0,1,143.5,153.14Z"/><path class="cls-2" d="M93.11,168a19.28,19.28,0,0,1-19.26-19.26c0-.17,0-.34,0-.51l0-1.38h38.41l0,1.38c0,.17,0,.34,0,.51A19.28,19.28,0,0,1,93.11,168ZM76.47,149.49a16.66,16.66,0,0,0,33.3,0Z"/><path class="cls-2" d="M109.71,149.5a1.3,1.3,0,0,1-1.24-.92L91.82,94a1.3,1.3,0,1,1,2.48-.76L111,147.82a1.3,1.3,0,0,1-1.24,1.68Z"/><path class="cls-2" d="M76.52,149.5a1.3,1.3,0,0,1-1.24-1.67L91.82,93.27A1.3,1.3,0,1,1,94.3,94L77.76,148.58A1.3,1.3,0,0,1,76.52,149.5Z"/><path class="cls-2" d="M93.16,147.35a1.3,1.3,0,0,1-1.26-1.61,13.22,13.22,0,0,1,1.19-3l1.73-4.31a4.07,4.07,0,0,1,2.39-2.3,4.56,4.56,0,0,1,3.66.22l2.18,1.11a1.3,1.3,0,0,1-.75,2.44c-3.64-.47-5.74,1.92-6.84,3.93l-1.09,2.72A1.3,1.3,0,0,1,93.16,147.35Z"/><path class="cls-2" d="M93.07,147.35a1.3,1.3,0,0,1-1.2-.81l-1.06-2.64c-1.1-2-3.21-4.48-6.87-4a1.3,1.3,0,0,1-.75-2.44l2.18-1.11a4.55,4.55,0,0,1,3.66-.22,4.07,4.07,0,0,1,2.39,2.3l1.73,4.31a13.21,13.21,0,0,1,1.19,3,1.3,1.3,0,0,1-1.26,1.61Z"/><path class="cls-2" d="M206.89,168a19.28,19.28,0,0,1-19.26-19.26c0-.17,0-.34,0-.51l0-1.38h38.41l0,1.38c0,.17,0,.34,0,.51A19.28,19.28,0,0,1,206.89,168Zm-16.65-18.55a16.66,16.66,0,0,0,33.3,0Z"/><path class="cls-2" d="M190.29,149.5a1.3,1.3,0,0,1-1.24-1.68L205.7,93.26a1.3,1.3,0,1,1,2.48.76l-16.65,54.56A1.3,1.3,0,0,1,190.29,149.5Z"/><path class="cls-2" d="M223.48,149.5a1.3,1.3,0,0,1-1.24-.92L205.7,94a1.3,1.3,0,0,1,2.48-.75l16.54,54.56a1.3,1.3,0,0,1-1.24,1.67Z"/><path class="cls-2" d="M206.84,147.35a1.3,1.3,0,0,1-1.2-.81l-1.06-2.64c-1.1-2-3.21-4.48-6.87-4a1.3,1.3,0,0,1-.75-2.44l2.18-1.11a4.55,4.55,0,0,1,3.66-.22,4.07,4.07,0,0,1,2.39,2.3l1.73,4.31a13.22,13.22,0,0,1,1.19,3,1.3,1.3,0,0,1-1.26,1.61Z"/><path class="cls-2" d="M206.93,147.35a1.3,1.3,0,0,1-1.26-1.61,13.21,13.21,0,0,1,1.19-3l1.73-4.31a4.07,4.07,0,0,1,2.39-2.3,4.56,4.56,0,0,1,3.66.22l2.18,1.11a1.3,1.3,0,0,1-.75,2.44c-3.64-.47-5.74,1.92-6.84,3.93l-1.09,2.72A1.3,1.3,0,0,1,206.93,147.35Z"/><path class="cls-2" d="M208.22,95q-.41,0-.84,0c-4.14-.3-8-2.81-11.37-7.45-1.59-2.16-3.17-4.65-4.84-7.28-8.84-13.92-18.86-29.7-40.37-17.41a1.27,1.27,0,0,1-.67.17h-.27a1.3,1.3,0,0,1-.62-.17c-21.55-12.31-31.61,3.51-40.49,17.46-1.66,2.61-3.23,5.08-4.81,7.23-3.41,4.64-7.24,7.15-11.37,7.45-5.81.42-10-3.72-10.15-3.89a1.3,1.3,0,0,1,1.37-2.13s8.91,2.12,22.5-29c4.86-11.12,11.15-17.26,18.7-18.24,11.43-1.49,21.93,9.29,25,12.81,3.08-3.51,13.55-14.28,25-12.8,7.55,1,13.84,7.12,18.7,18.25,13.42,30.73,22.42,29,22.5,29A1.3,1.3,0,0,1,217.53,91,14.24,14.24,0,0,1,208.22,95ZM165,55.81c13.76,0,22,12.91,28.36,23,1.65,2.59,3.2,5,4.74,7.14,2.94,4,6.13,6.15,9.47,6.4a10.2,10.2,0,0,0,5.53-1.29c-4.4-1.6-12.12-7.88-21.82-30.1-4.47-10.23-10.07-15.85-16.66-16.71-11.87-1.54-23.37,12.76-23.48,12.9a1.27,1.27,0,0,1-1,.49h-.24a1.3,1.3,0,0,1-1-.49c-.12-.14-11.68-14.46-23.55-12.9-6.59.86-12.19,6.49-16.65,16.71-9.7,22.2-17.41,28.5-21.81,30.1a10.19,10.19,0,0,0,5.55,1.29c3.33-.25,6.51-2.41,9.45-6.4,1.53-2.08,3.08-4.51,4.72-7.09,8.49-13.34,20.1-31.59,43.46-18.6C155.66,57.12,160.61,55.81,165,55.81Z"/><path class="cls-2" d="M169.94,172.07a1.3,1.3,0,0,1-1.3-1.3A18.68,18.68,0,0,0,156,153.06a18.63,18.63,0,0,0-12,0,18.68,18.68,0,0,0-12.68,17.7,1.3,1.3,0,0,1-2.6,0,21.27,21.27,0,0,1,14.44-20.16,21.23,21.23,0,0,1,13.73,0,21.28,21.28,0,0,1,14.44,20.16A1.3,1.3,0,0,1,169.94,172.07Z"/><path class="cls-2" d="M169.94,172.07h-40a1.3,1.3,0,1,1,0-2.6h40a1.3,1.3,0,1,1,0,2.6Z"/></svg>