<svg id="Warstwa_1" data-name="Warstwa 1" xmlns="http://www.w3.org/2000/svg" xmlns:xlink="http://www.w3.org/1999/xlink" viewBox="0 0 300 205"><defs><style>.cls-1{fill:#fff;}.cls-2{fill:#f42742;}.cls-3{fill:url(#ŃŚÁŻž_ŪŪŻť_ūŗšŤŚŪÚ_14);}.cls-4{fill:url(#ŃŚÁŻž_ŪŪŻť_ūŗšŤŚŪÚ_14-2);}</style><linearGradient id="ŃŚÁŻž_ŪŪŻť_ūŗšŤŚŪÚ_14" x1="-561.59" y1="-476.63" x2="245.73" y2="387.08" gradientTransform="translate(40.53 6.02) rotate(18.67)" gradientUnits="userSpaceOnUse"><stop offset="0" stop-color="#c78006"/><stop offset="0.27" stop-color="#ae7e22"/><stop offset="0.5" stop-color="#d69b0b"/><stop offset="0.74" stop-color="#f6cc11"/><stop offset="1" stop-color="#fee71a"/></linearGradient><linearGradient id="ŃŚÁŻž_ŪŪŻť_ūŗšŤŚŪÚ_14-2" x1="-561.59" y1="-476.63" x2="245.73" y2="387.08" gradientTransform="matrix(1, 0, 0, 1, 0, 0)" xlink:href="#ŃŚÁŻž_ŪŪŻť_ūŗšŤŚŪÚ_14"/></defs><title>horoskop</title><rect class="cls-1" width="300" height="205"/><path class="cls-2" d="M196.43,73.19a3.44,3.44,0,0,1-1.41-.31,3.7,3.7,0,0,1-2-2.22l-.57-1.71a1.3,1.3,0,0,1,2.26-1.2A4.6,4.6,0,0,0,200,69.13l2-.85a1.3,1.3,0,0,1,1.19,2.3,10.07,10.07,0,0,1-2.24,1l-3.14,1.35A3.3,3.3,0,0,1,196.43,73.19Z"/><path class="cls-2" d="M203.36,79.5a1.3,1.3,0,0,1-.41-.07l-1.71-.57a3.71,3.71,0,0,1-2.22-2,3.34,3.34,0,0,1,0-2.72L200.34,71a10.09,10.09,0,0,1,1-2.24,1.3,1.3,0,0,1,2.3,1.19l-.82,1.9a4.64,4.64,0,0,0,1.36,5.31,1.3,1.3,0,0,1-.8,2.32Z"/><path class="cls-2" d="M183.71,60.48a3.44,3.44,0,0,1-1.41-.31,3.71,3.71,0,0,1-2-2.22l-.57-1.71A1.3,1.3,0,0,1,182,55a4.6,4.6,0,0,0,5.23,1.39l2-.85a1.3,1.3,0,0,1,1.19,2.3,10.07,10.07,0,0,1-2.24,1L185,60.2A3.3,3.3,0,0,1,183.71,60.48Z"/><path class="cls-2" d="M190.64,66.79a1.3,1.3,0,0,1-.41-.07l-1.71-.57a3.7,3.7,0,0,1-2.22-2,3.34,3.34,0,0,1,0-2.72l1.35-3.14a10.09,10.09,0,0,1,1-2.24,1.3,1.3,0,0,1,2.3,1.18l-.82,1.9a4.64,4.64,0,0,0,1.36,5.31,1.3,1.3,0,0,1-.8,2.32Z"/><path class="cls-2" d="M171.34,48.1a3.44,3.44,0,0,1-1.41-.31,3.7,3.7,0,0,1-2-2.22l-.57-1.71a1.3,1.3,0,0,1,2.26-1.2A4.64,4.64,0,0,0,174.94,44l1.9-.82A1.3,1.3,0,0,1,178,45.5a10.11,10.11,0,0,1-2.24,1l-3.14,1.35A3.3,3.3,0,0,1,171.34,48.1Z"/><path class="cls-2" d="M178.27,54.41a1.3,1.3,0,0,1-.41-.07l-1.71-.57a3.7,3.7,0,0,1-2.22-2,3.34,3.34,0,0,1,0-2.72l1.35-3.14a10.09,10.09,0,0,1,1-2.24,1.3,1.3,0,0,1,2.3,1.19l-.82,1.9a4.64,4.64,0,0,0,1.36,5.31,1.3,1.3,0,0,1-.8,2.32Z"/><path class="cls-2" d="M165.46,116.51a1.3,1.3,0,0,1-1.17-.74c-1.74-3.64-7.63-12.17-14.17-18.69l0,0a1.31,1.31,0,0,1-.08-1.84,1.29,1.29,0,0,1,1.82-.08l.08.08.05.05c6.39,6.37,12.59,15,14.68,19.41a1.3,1.3,0,0,1-1.17,1.86Z"/><path class="cls-2" d="M144.5,105a1.3,1.3,0,0,1-.95-.41l-.47-.45a1.3,1.3,0,1,1,1.8-1.87l.48.46a1.39,1.39,0,0,1,.43.83,1.3,1.3,0,0,1-1.15,1.43Z"/><path class="cls-2" d="M211.87,56h-.1a1.3,1.3,0,0,1-1.19-1.4c.15-1.86-2.5-6.62-7.7-11.78A1.3,1.3,0,1,1,204.7,41c4.09,4.05,8.75,10.1,8.46,13.82A1.3,1.3,0,0,1,211.87,56Z"/><path class="cls-2" d="M211.87,56.18a1.29,1.29,0,0,1-1.3-1.27v-.13a1.3,1.3,0,1,1,2.59-.1v.19a1.31,1.31,0,0,1-1.28,1.32Z"/><path class="cls-2" d="M165.46,116.51a1.3,1.3,0,0,1-1.21-1.76,53.34,53.34,0,0,1,16-21.8,20.9,20.9,0,0,1,6.1-3.38,36.75,36.75,0,0,0,13.93-8.91,35.71,35.71,0,0,0,10.27-25.74,1.3,1.3,0,1,1,2.6,0,38.28,38.28,0,0,1-11,27.6A39.36,39.36,0,0,1,187.24,92a18.3,18.3,0,0,0-5.34,3,51.48,51.48,0,0,0-15.23,20.7A1.3,1.3,0,0,1,165.46,116.51Z"/><path class="cls-2" d="M143.17,104.21c-1.86-1.85-18.09-18.24-14-22.43S150,93.4,151.94,95.22l-1.8,1.87C139.6,87,132.56,83.37,131.06,83.62c-.22,1.51,3.59,8.46,13.94,18.75Z"/><path class="cls-2" d="M203,43c-5.28-5.07-10.1-7.6-12-7.41L190.76,33c3.71-.38,9.88,4.14,14,8.12Z"/><path class="cls-2" d="M190.74,35.55l0-2.6h.2l0,2.6Z"/><path class="cls-2" d="M131.49,83.53l-1-2.4a52.92,52.92,0,0,0,20.88-16,18.32,18.32,0,0,0,2.83-5.41,39.35,39.35,0,0,1,9.18-15.14A38.28,38.28,0,0,1,190.71,33l0,2.6a35.71,35.71,0,0,0-25.48,10.89,36.74,36.74,0,0,0-8.57,14.14,20.91,20.91,0,0,1-3.23,6.18A55.65,55.65,0,0,1,131.49,83.53Z"/><path class="cls-2" d="M124.51,172.06a41.63,41.63,0,0,1-20.32-5.29,33.78,33.78,0,0,1-13.07-45.95,27.32,27.32,0,0,1,37.12-10.56,22.08,22.08,0,0,1,8.54,30c-.1.18-.2.36-.32.54l0,.08-.22.35,0,0-.1.15-.17.26-.15.21,0,0v0l0,0a17.52,17.52,0,0,1-1.7,2.05l-.06.06,0,0a18,18,0,0,1-21.5,3.08,14.6,14.6,0,0,1-5.65-19.86A11.94,11.94,0,0,1,123,122.76a9.81,9.81,0,0,1,3.79,13.35,8.11,8.11,0,0,1-11,3.14A1.3,1.3,0,0,1,117,137a5.51,5.51,0,0,0,7.5-2.14,7.21,7.21,0,0,0-2.79-9.82A9.35,9.35,0,0,0,109,128.65,12,12,0,0,0,113.64,145a15.35,15.35,0,0,0,18.42-2.67l.08-.07a14.92,14.92,0,0,0,1.39-1.67l.1-.13,0,0,.07-.09,0-.07.11-.17,0-.06.09-.14.16-.25v0l.05-.09c.09-.15.18-.29.26-.44A19.49,19.49,0,0,0,127,112.54a24.72,24.72,0,0,0-33.58,9.55,31.18,31.18,0,0,0,12.07,42.42,39.35,39.35,0,0,0,53.46-15.21,49.47,49.47,0,0,0,5.28-33.84,1.3,1.3,0,1,1,2.54-.51,52.07,52.07,0,0,1-5.56,35.61A41.94,41.94,0,0,1,124.51,172.06Z"/><path class="cls-2" d="M133.85,144.19l-1.68-2,0,0c13.54-12.3,11.54-34.09,11-38.33a49,49,0,0,0-5.54-17.23L140,85.38a51.55,51.55,0,0,1,5.83,18.13c.57,4.47,2.66,27.42-11.86,40.6Z"/><path class="cls-2" d="M121.1,149.51a17.89,17.89,0,0,1-8.72-2.26,14.6,14.6,0,0,1-5.65-19.86A11.94,11.94,0,0,1,123,122.76a9.81,9.81,0,0,1,3.79,13.35,8.11,8.11,0,0,1-11,3.14L117,137a5.51,5.51,0,0,0,7.5-2.14,7.21,7.21,0,0,0-2.79-9.82A9.35,9.35,0,0,0,109,128.65,12,12,0,0,0,113.64,145a15.35,15.35,0,0,0,18.4-2.65l.57-.76,1.09-1.44c.74-1,1.11-1.44,2-1.21a1.3,1.3,0,0,1,1,1.1,1.35,1.35,0,0,1-.2.87v0h0l-.23.36,0,0-.09.13-.19.28-.15.21,0,0,0,0,.06-.09-.1-.06-.94,1.25L134,144l-.1.11A17.9,17.9,0,0,1,121.1,149.51Z"/><path class="cls-2" d="M121.73,161.63a25.8,25.8,0,0,1-16-5.58,1.3,1.3,0,0,1,1.71-2A23.62,23.62,0,0,0,122.49,159c9.06-.3,16.37-3.46,21.74-9.41,8.48-9.39,12-25.53,10.44-48a1.3,1.3,0,1,1,2.59-.18c1.6,23.18-2.13,40-11.1,49.9-5.86,6.49-13.8,9.94-23.59,10.26Z"/><ellipse class="cls-3" cx="1.97" cy="126.29" rx="1.56" ry="1.11" transform="translate(-40.33 7.28) rotate(-18.67)"/><path class="cls-4" d="M2.6,128.15c-1.44.49-2.89,0-3.24-1s.54-2.25,2-2.74,2.89,0,3.24,1S4,127.66,2.6,128.15Zm-.71-2.1c-.19.06-.3.22-.26.36a.32.32,0,0,0,.42.13c.19-.06.3-.22.26-.36A.32.32,0,0,0,1.89,126.05Z"/></svg>