<svg id="Warstwa_1" data-name="Warstwa 1" xmlns="http://www.w3.org/2000/svg" viewBox="0 0 300 205"><defs><style>.cls-1{fill:#fff;}.cls-2{fill:#f42742;}</style></defs><title>horoskop</title><rect class="cls-1" width="300" height="205"/><path class="cls-2" d="M124.3,90.7a1.35,1.35,0,0,1-1.13-.61c-2.21-3.38-5.75-3.4-8.21-2.87l-2.93,1a1.36,1.36,0,0,1-1-2.5,14.29,14.29,0,0,1,3.31-1.13L119.08,83a4.37,4.37,0,0,1,3.54.34A4.89,4.89,0,0,1,125,86.45l.62,2.58a1.36,1.36,0,0,1-1.32,1.67Z"/><path class="cls-2" d="M135.19,178.73l-.23,0a1.35,1.35,0,0,1-1.11-1.56c.8-4.74-2.48-22.3-5.71-28a11,11,0,0,0-8.52-5.56l-13.68-1.34a8.87,8.87,0,0,1-5.65-2.71c-3.15-3.37-1-6.41.21-8.05a8.77,8.77,0,0,0,.7-1.07c-.52-1.09-2.49-2.45-3.4-3a1.35,1.35,0,0,1-.41-.35,2.48,2.48,0,0,1-.49-2.86c.5-.92,1.6-1.38,3.26-1.54-1.62-1.06-2.87-2.31-2.83-3.56,0-.51.27-1.75,2.29-2.12.45-.08,1-.26,1.2-.63a2.27,2.27,0,0,0-.12-1.56,8.89,8.89,0,0,1-5.3-8.5,1.36,1.36,0,0,1,.32-.76l10.45-12.3-.7-2.81a19.88,19.88,0,0,1,2.45-15.32L117,60.62a1.36,1.36,0,0,1,2.29,1.44l-9.13,14.51a17.15,17.15,0,0,0-2.11,13.22l.87,3.49a1.36,1.36,0,0,1-.28,1.21L98.1,106.94a6.23,6.23,0,0,0,4.14,5.59,1.36,1.36,0,0,1,.68.61c.13.25,1.28,2.47.35,4.41a3.88,3.88,0,0,1-2.74,2,19,19,0,0,0,6.57,3.27c.61.15,1.88.45,1.66,1.73s-1.36,1.16-2.47,1a26.19,26.19,0,0,0-6.52-.17c1.15.73,3.39,2.33,4,4.17.45,1.24-.34,2.35-1.11,3.41-1.28,1.78-2,3-.43,4.62a6.16,6.16,0,0,0,3.93,1.86l13.68,1.34a13.73,13.73,0,0,1,10.62,6.93c3.33,5.93,7,24,6,29.82A1.36,1.36,0,0,1,135.19,178.73Z"/><path class="cls-2" d="M161.73,107.44a1.35,1.35,0,0,1-.95-.39L145.23,91.8a4,4,0,0,1-1.18-3l.77-19.17a1.26,1.26,0,0,0-1-1.28L117.9,62.67a1.36,1.36,0,0,1,.58-2.65l25.93,5.69a4,4,0,0,1,3.11,4l-.77,19.17a1.26,1.26,0,0,0,.38.95l15.54,15.26a1.35,1.35,0,0,1-.95,2.32Z"/><path class="cls-2" d="M115.34,100.55a1.36,1.36,0,0,1-.18-2.7l2.76-.38c-5.64-2.44-7-4.47-7.22-4.93a1.35,1.35,0,0,1,2.38-1.3c.09.13,1.93,2.71,10.79,5.55a1.35,1.35,0,0,1-.23,2.63l-8.1,1.12Z"/><path class="cls-2" d="M155.89,123.19a3.45,3.45,0,0,1-1.2-.21c-2.32-.85-2.8-3.83-2.85-4.16a1.35,1.35,0,0,1,2.68-.39c.08.53.47,1.78,1.11,2s1.62-.32,2.83-1.39c5.08-4.51,8.34-11.67,7.57-16.66a1.36,1.36,0,0,1,2.68-.41c.91,5.92-2.64,14-8.45,19.1A6.94,6.94,0,0,1,155.89,123.19Z"/><path class="cls-2" d="M118.19,62.7a1.35,1.35,0,0,1-1.31-1c-.12-.49-2.9-12.09,4.71-20.37,6.61-7.2,18.79-9.45,36.21-6.67.92.14,22.67,3.6,31.38,10.18A1.35,1.35,0,0,1,187.53,47c-8.17-6.18-29.94-9.63-30.16-9.67-16.45-2.62-27.81-.67-33.77,5.81-6.63,7.2-4.12,17.8-4.09,17.91a1.36,1.36,0,0,1-1.32,1.68Z"/><path class="cls-2" d="M181.14,178.73a1.35,1.35,0,0,1-1.11-.57c-19.77-27.84-8.48-54.37-8.37-54.64a4,4,0,0,1,2.4-2.17c4.84-1.58,29.23-10.85,33.87-38.07,5.08-29.82-3.44-35.18-7.08-37.47l-.23-.14c-2.94-1.86-8.61-2.57-11.18,1a5,5,0,0,0,.39,5.57c1.91,2.57,5.92,3,11,1.3a1.36,1.36,0,0,1,.88,2.56c-8.9,3.06-12.79-.55-14.05-2.25a7.73,7.73,0,0,1-.41-8.77c3.28-4.56,10.32-4.57,14.83-1.72l.22.14c4.09,2.57,13.68,8.6,8.3,40.21-4.89,28.75-30.59,38.52-35.7,40.19a1.26,1.26,0,0,0-.76.69c-.11.25-10.8,25.38,8.09,52a1.36,1.36,0,0,1-1.1,2.14Z"/><path class="cls-2" d="M184,76.85a22.53,22.53,0,0,1-2.8-.15A1.35,1.35,0,0,1,181.6,74h0A31.75,31.75,0,0,0,209.49,61.1a1.36,1.36,0,0,1,2.18,1.6A33.94,33.94,0,0,1,184,76.85Z"/><path class="cls-2" d="M181.64,93.54c-.89,0-1.45,0-1.57-.05a1.36,1.36,0,0,1,.22-2.7h0c.18,0,17.75,1.24,28.74-13.73a1.36,1.36,0,1,1,2.18,1.6C201.17,92.35,186.46,93.54,181.64,93.54Z"/><path class="cls-2" d="M180.89,108.78a23.08,23.08,0,0,1-3.48-.23,1.36,1.36,0,0,1,.44-2.67h0a29.64,29.64,0,0,0,27.44-12.45,1.36,1.36,0,1,1,2.18,1.6A32.48,32.48,0,0,1,180.89,108.78Z"/><circle class="cls-2" cx="156.96" cy="115.02" r="1.74"/><path class="cls-2" d="M181.14,178.73h-46a1.36,1.36,0,1,1,0-2.71h46a1.36,1.36,0,0,1,0,2.71Z"/></svg>