<svg id="Warstwa_1" data-name="Warstwa 1" xmlns="http://www.w3.org/2000/svg" viewBox="0 0 300 205"><defs><style>.cls-1{fill:#fff;}.cls-2{fill:#f42742;}</style></defs><title>horoskop</title><rect class="cls-1" width="300" height="205"/><path class="cls-2" d="M173.32,77.06a1.3,1.3,0,0,1-.9-2.23,13.85,13.85,0,0,1,2.73-2l4-2.88a4.22,4.22,0,0,1,3.36-.71,4.73,4.73,0,0,1,3.1,2.2l1.33,2.21A1.3,1.3,0,0,1,185,75.31c-3-2.48-6.26-1.51-8.38-.32l-2.49,1.82A1.29,1.29,0,0,1,173.32,77.06Z"/><path class="cls-2" d="M200.23,76.45a1.3,1.3,0,0,1-.9-2.23,12.5,12.5,0,0,1,2.46-1.8l3.53-2.57a3.91,3.91,0,0,1,3.11-.66,4.36,4.36,0,0,1,2.86,2l1.19,2a1.3,1.3,0,0,1-1.94,1.67c-2.63-2.16-5.46-1.32-7.32-.28L201,76.2A1.29,1.29,0,0,1,200.23,76.45Z"/><path class="cls-2" d="M144.56,171.12l1.25-.34-1.25.34c0-.07,0-.15-.05-.22-3.64-14.16,3.78-25.87,8.53-31.59a14,14,0,0,1,12.73-4.95l5.68.75a1.3,1.3,0,0,1-.34,2.57l-5.68-.75A11.46,11.46,0,0,0,155,141c-5.42,6.53-11.21,16.92-8,29.32l0,.15Z"/><path class="cls-2" d="M139.46,103a1.3,1.3,0,0,1-1.1-.6,8.16,8.16,0,0,1-1.21-5.29,7.36,7.36,0,0,1,4.55-5.88l.79-.33a1.3,1.3,0,0,1,1,2.39l-.79.33a4.77,4.77,0,0,0-3,3.78,5.55,5.55,0,0,0,.82,3.6,1.3,1.3,0,0,1-1.09,2Z"/><path class="cls-2" d="M111,103.72c-13.52,0-29.61-7.76-30.4-8.15a1.3,1.3,0,0,1,1.14-2.33c.22.11,22.1,10.65,35.36,7.18a1.3,1.3,0,0,1,.66,2.51A26.71,26.71,0,0,1,111,103.72Z"/><path class="cls-2" d="M119.81,93h-.1C101.59,91.53,85.26,78,84.58,77.48a1.3,1.3,0,0,1,1.66-2c.16.13,16.39,13.52,33.67,14.88a1.3,1.3,0,0,1-.1,2.59Z"/><path class="cls-2" d="M125.16,81.8l-.25,0c-4.29-.82-9.36-3-15.06-6.35A131,131,0,0,1,91.67,62a1.3,1.3,0,0,1,1.74-1.92,128.24,128.24,0,0,0,17.77,13.11c5.44,3.24,10.22,5.27,14.22,6a1.3,1.3,0,0,1-.24,2.57Z"/><path class="cls-2" d="M135.17,71.44a1.29,1.29,0,0,1-.58-.14C121.65,64.88,105.88,46.72,105.22,46a1.3,1.3,0,0,1,2-1.7c.16.18,16.09,18.54,28.57,24.72a1.3,1.3,0,0,1-.58,2.46Z"/><path class="cls-2" d="M98.68,117.5a101.69,101.69,0,0,1-15.85-1.31,1.3,1.3,0,0,1,.45-2.56c.15,0,15.62,2.68,26.94.19l.77-.18a24,24,0,0,0,4.09-1.36,1.3,1.3,0,1,1,1.06,2.37,26.47,26.47,0,0,1-4.5,1.5c-.26.07-.56.14-.85.2A57.68,57.68,0,0,1,98.68,117.5Z"/><path class="cls-2" d="M87.08,172.07a1.3,1.3,0,0,1-.79-2.33c.12-.09,12.08-9.49,19.27-32.94a2.84,2.84,0,0,0-2.71-3.66H89.91a2.72,2.72,0,0,1-2.57-1.83L82,116l-1.61-.48a2.7,2.7,0,0,1-1.93-2.35,56.89,56.89,0,0,1,1.22-17.94l.06-.3-1-.82A2.73,2.73,0,0,1,78,91.31a66.15,66.15,0,0,1,5.83-14.58L83.09,76a2.7,2.7,0,0,1-.55-3.18,51.65,51.65,0,0,1,8.14-11.74L90.53,61a2.72,2.72,0,0,1-.26-3.84,79.29,79.29,0,0,1,6.88-6.91,69.19,69.19,0,0,1,7.3-5.57,2.72,2.72,0,0,1,1.09-3c.79-.54,1.5-1,2.17-1.35A56.31,56.31,0,0,1,125,34.1c1.33-.24,2.73-.45,4.15-.63A48.59,48.59,0,0,1,148.71,35a50.18,50.18,0,0,1,24.58,16,51,51,0,0,1,4.83,6.84l7.49,12.7.11.2a15.3,15.3,0,0,1,1.85,9.11,5.86,5.86,0,0,0,1,4l6.92,9.95a4.42,4.42,0,0,1,.55,4.07,6.26,6.26,0,0,1-4.37,3.72c-2.34.71-3,1.58-3.07,1.93a4.25,4.25,0,0,0,1.54,2,4,4,0,0,1,1.76,3.28c0,1.06-.41,2.9-3.21,3.77a2.76,2.76,0,0,1,.8,1.05,3.46,3.46,0,0,1,.09,2.73c-.54,1.31-2,2.42-4.36,3.39a2.31,2.31,0,0,0-1.36,1.3c-.67,1.59.06,4.08.4,4.9l.07.21a9.73,9.73,0,0,1-1.81,7.84c-2.21,2.64-6,3.86-11.31,3.62a1.3,1.3,0,0,1,.12-2.59c4.43.2,7.52-.69,9.19-2.67a7.13,7.13,0,0,0,1.31-5.54c-.3-.77-1.47-4.09-.35-6.76a4.94,4.94,0,0,1,2.78-2.71c2.3-.94,2.82-1.69,2.94-2a.88.88,0,0,0-.08-.74,3.18,3.18,0,0,0-1.22-.65,6.25,6.25,0,0,0-1-.25,1.37,1.37,0,0,1-1.2-1.3c0-1.29,1.19-1.58,3.9-2.23,1.77-.42,1.77-1.14,1.76-1.37a1.45,1.45,0,0,0-.64-1.17,6.69,6.69,0,0,1-2.62-3.68V104c-.06-.33-.46-3.23,4.89-4.85a3.81,3.81,0,0,0,2.7-2.15,1.85,1.85,0,0,0-.25-1.67l-6.92-9.95A8.46,8.46,0,0,1,185,79.62,12.71,12.71,0,0,0,183.45,72l-.93-1.59-6.63-11.24a48.43,48.43,0,0,0-4.59-6.49A47.59,47.59,0,0,0,148,37.51,46,46,0,0,0,129.44,36c-1.38.17-2.72.38-4,.61a53.72,53.72,0,0,0-16.46,6c-.6.33-1.24.73-2,1.22a.12.12,0,0,0,0,.18l1.17,1.37-1.26.8a66.45,66.45,0,0,0-8,6,76.54,76.54,0,0,0-6.64,6.67.11.11,0,0,0,0,.08.12.12,0,0,0,0,.09L94.43,61l-1,1A49.06,49.06,0,0,0,84.85,74a.12.12,0,0,0,0,.14L87,76.24l-.49.88A63.63,63.63,0,0,0,80.46,92a.13.13,0,0,0,0,.12l2.12,1.81-.37,1.83a54.36,54.36,0,0,0-1.17,17.16.12.12,0,0,0,.09.1l2.89.86,5.73,16.6a.12.12,0,0,0,.12.08h12.93a5.43,5.43,0,0,1,5.2,7c-7.45,24.33-19.66,33.85-20.18,34.25A1.29,1.29,0,0,1,87.08,172.07Z"/><path class="cls-2" d="M141.36,111.65a4.24,4.24,0,0,1-2.61-.91,20.05,20.05,0,0,1-6.16-8.29,25.38,25.38,0,0,1-1.79-9.87,15.76,15.76,0,0,1,1-5,5.6,5.6,0,0,1,3.1-3.37,5.76,5.76,0,0,1,4.65.54L144.82,87l5.69-6.17a17.06,17.06,0,0,0,4.57-14.11L155,66.3l-1.31-9.67c-.21-1.31-.35-3.26.86-4.61.89-1,2.32-1.46,4.37-1.38l13.36,0h0a1.3,1.3,0,0,1,0,2.6l-13.41,0a3.42,3.42,0,0,0-2.38.51,3.36,3.36,0,0,0-.23,2.51l1.38,10.14a19.63,19.63,0,0,1-5.24,16.24l-6.93,7.51-7.08-3.06a3.37,3.37,0,0,0-2.62-.44,3.17,3.17,0,0,0-1.61,1.92,13.1,13.1,0,0,0-.79,4.06,22.78,22.78,0,0,0,1.6,8.86,17.48,17.48,0,0,0,5.37,7.23,1.65,1.65,0,0,0,1.76.16l3.56-1.86a1.3,1.3,0,1,1,1.2,2.3l-3.57,1.86A4.29,4.29,0,0,1,141.36,111.65Z"/><path class="cls-2" d="M87.08,172.07a1.3,1.3,0,0,1,0-2.6l58.8-.1h0a1.3,1.3,0,0,1,0,2.6l-58.8.1Z"/><path class="cls-2" d="M179.94,86.58a1.29,1.29,0,0,1-.6-.15L172.78,83a1.3,1.3,0,0,1,1.21-2.3l6.56,3.46a1.3,1.3,0,0,1-.61,2.45Z"/><path class="cls-2" d="M174.34,83l-1,0a1.3,1.3,0,0,1,.1-2.59c1.77.07,6.77-.06,8.66-1.44a1.3,1.3,0,0,1,1.53,2.1C181.23,82.75,176.47,83,174.34,83Z"/><path class="cls-2" d="M171.61,171.9a1.3,1.3,0,0,1-1.25-1c-3.76-14.25,3.7-26,8.48-31.8a14,14,0,0,1,12.73-4.94l5.68.76a1.3,1.3,0,0,1-.34,2.57l-5.68-.76a11.45,11.45,0,0,0-10.39,4c-5.45,6.57-11.25,17-8,29.48a1.3,1.3,0,0,1-1.26,1.63Z"/><path class="cls-2" d="M198.31,137.56l-1.3,0a1.3,1.3,0,0,1,.12-2.59c4.43.2,7.52-.69,9.18-2.67a7.13,7.13,0,0,0,1.3-5.54c-.3-.77-1.46-4.09-.34-6.76a4.94,4.94,0,0,1,2.78-2.71c2.31-.94,2.83-1.69,2.94-2a.88.88,0,0,0-.08-.74,3.26,3.26,0,0,0-1.23-.65,6.65,6.65,0,0,0-1-.25,1.36,1.36,0,0,1-1.19-1.29c-.05-1.29,1.19-1.59,3.9-2.24,1.78-.42,1.77-1.14,1.77-1.37a1.44,1.44,0,0,0-.64-1.16,6.71,6.71,0,0,1-2.62-3.69v-.06c-.06-.33-.46-3.23,4.89-4.85a3.81,3.81,0,0,0,2.7-2.15,1.83,1.83,0,0,0-.26-1.67l-6.91-9.95a8.43,8.43,0,0,1-1.46-5.76,13.66,13.66,0,0,0,.07-1.38,12.7,12.7,0,0,0-1.62-6.21l-.05-.09-.09-.16L201.69,59a48,48,0,0,0-4.59-6.49,46.92,46.92,0,0,0-41.86-16.68,53.63,53.63,0,0,0-7.31,1.43,1.3,1.3,0,0,1-.67-2.51,56.2,56.2,0,0,1,7.66-1.5,49.51,49.51,0,0,1,44.17,17.59,50.62,50.62,0,0,1,4.83,6.84l7.51,12.74.09.16a15.27,15.27,0,0,1,1.94,7.45,16.35,16.35,0,0,1-.08,1.65,5.84,5.84,0,0,0,1,4l6.91,9.95a4.39,4.39,0,0,1,.55,4.08,6.26,6.26,0,0,1-4.37,3.71c-2.34.71-3,1.58-3.07,1.92a4.27,4.27,0,0,0,1.54,2,4,4,0,0,1,1.76,3.28c0,.85-.3,2.86-3.21,3.77a2.78,2.78,0,0,1,.8,1,3.46,3.46,0,0,1,.09,2.75c-.55,1.33-1.93,2.4-4.37,3.39a2.31,2.31,0,0,0-1.36,1.3c-.67,1.61.06,4.08.4,4.89l.07.21a9.73,9.73,0,0,1-1.81,7.84C206.3,136.33,202.94,137.56,198.31,137.56Z"/><path class="cls-2" d="M182.28,68.8A1.3,1.3,0,0,1,181,67.61c0-.34-.06-.69-.11-1l-1.37-10.12c-.21-1.31-.35-3.26.86-4.61.89-1,2.32-1.45,4.37-1.38l13.36,0h0a1.3,1.3,0,0,1,0,2.6l-13.41,0a3.42,3.42,0,0,0-2.38.51,3.36,3.36,0,0,0-.23,2.51l1.38,10.15c.05.38.09.78.12,1.17a1.3,1.3,0,0,1-1.19,1.4Z"/><path class="cls-2" d="M111.8,172.07a1.3,1.3,0,0,1,0-2.6l59.82-.17h0a1.3,1.3,0,0,1,0,2.6l-59.82.17Z"/><path class="cls-2" d="M205.74,86.42a1.29,1.29,0,0,1-.6-.15l-6.56-3.46a1.3,1.3,0,0,1,1.21-2.3L206.35,84a1.3,1.3,0,0,1-.61,2.45Z"/><path class="cls-2" d="M200.14,82.79l-1,0a1.3,1.3,0,0,1,.1-2.59c1.77.07,6.77-.06,8.66-1.44a1.3,1.3,0,0,1,1.53,2.1C207,82.58,202.27,82.79,200.14,82.79Z"/></svg>