<svg id="Warstwa_1" data-name="Warstwa 1" xmlns="http://www.w3.org/2000/svg" viewBox="0 0 300 205"><defs><style>.cls-1{fill:#fff;}.cls-2{fill:#f42742;}</style></defs><title>horoskop</title><rect class="cls-1" width="300" height="205"/><path class="cls-2" d="M104.22,172.07a1.3,1.3,0,0,1-.59-2.45c3.64-1.87,4-5.39,3.79-7.92l-.71-3.13a1.3,1.3,0,0,1,2.48-.74,14.35,14.35,0,0,1,.78,3.42l1.12,5a4.34,4.34,0,0,1-.7,3.46,4.86,4.86,0,0,1-3.35,2l-2.65.36Z"/><path class="cls-2" d="M116.74,164.68a4.27,4.27,0,0,1-2.38-.72l-4.24-2.81a14.33,14.33,0,0,1-2.92-2,1.3,1.3,0,0,1,1.58-2.06l2.6,1.73c2.28,1.16,5.76,2.08,8.82-.67a1.3,1.3,0,0,1,2,1.59l-1.28,2.35a4.86,4.86,0,0,1-3.08,2.4A4.59,4.59,0,0,1,116.74,164.68Z"/><path class="cls-2" d="M159.22,79.66a4.76,4.76,0,1,1,4.34-4.74A4.56,4.56,0,0,1,159.22,79.66Zm0-6.88A2.19,2.19,0,1,0,161,74.92,2,2,0,0,0,159.22,72.78Z"/><path class="cls-2" d="M108.3,159.84a1.3,1.3,0,0,1-.62-.16,57.88,57.88,0,0,1-22.32-22.35,67.54,67.54,0,0,1-8.68-33.09c-.15-33.78,24.1-61.71,54.06-62.25,13.33-.24,24.93,3.89,33.57,11.94,8.49,7.9,14.22,19.68,16.57,34a2.39,2.39,0,0,1-.74,2.1c-4.37,4.37-33.59,4-37.92,3.33a30.36,30.36,0,0,0-28,10c-10.25,11.81-11.91,31.07-4.68,54.24a1.29,1.29,0,0,1,.06.39,2.86,2.86,0,0,0,0,.33,1.3,1.3,0,0,1-1.29,1.44ZM131.86,44.58h-1.08c-28.55.52-51.66,27.27-51.51,59.65.1,21.37,10.6,41.26,27,51.6-6.58-22.91-4.48-42,6-54.1a32.93,32.93,0,0,1,30.4-10.88c2.47.4,11.2.55,19.19.15,11.69-.59,15.82-2,16.47-2.73C173.69,60.45,156.8,44.58,131.86,44.58Z"/><path class="cls-2" d="M142.75,93.41c-9.85-5-15.73-13.95-15.73-24A27.72,27.72,0,0,1,144.44,44l1,2.4a25.13,25.13,0,0,0-15.83,23.07c0,9,5.35,17.13,14.31,21.66Z"/><path class="cls-2" d="M104.81,134.08l-2-1.65a15.82,15.82,0,0,1,7.71-4.94,69,69,0,0,1-6.59-6.53l2-1.71c.19.22,4.8,5.45,8.4,7.84a1.3,1.3,0,0,1-.61,2.37C113.61,129.47,108.15,130,104.81,134.08Z"/><path class="cls-2" d="M98.57,58l-2.2-1.38c6.89-11-.46-21.5-.54-21.6a1.3,1.3,0,0,1,1.49-2l27,9.69-.88,2.44L99.65,36.6C101.63,41,104,49.33,98.57,58Z"/><path class="cls-2" d="M119,71.47a9.93,9.93,0,0,1-1.93-19.67,1.3,1.3,0,1,1,.51,2.55,7.34,7.34,0,1,0,2.88,14.39,1.3,1.3,0,0,1,.51,2.55A10,10,0,0,1,119,71.47Z"/><path class="cls-2" d="M122.39,88.4a9.93,9.93,0,0,1-1.93-19.67,1.3,1.3,0,0,1,.51,2.55,7.34,7.34,0,0,0,2.88,14.39,1.3,1.3,0,0,1,.51,2.55A10,10,0,0,1,122.39,88.4Z"/><path class="cls-2" d="M106.43,82.41a9.05,9.05,0,0,1-1.78-17.93,1.3,1.3,0,0,1,.51,2.55,6.46,6.46,0,0,0,2.54,12.67,1.3,1.3,0,1,1,.51,2.55A9.05,9.05,0,0,1,106.43,82.41Z"/><path class="cls-2" d="M192,48a1.3,1.3,0,0,1-1.22-.84,14.34,14.34,0,0,1-.78-3.42l-1.12-5a4.34,4.34,0,0,1,.7-3.46,4.86,4.86,0,0,1,3.35-2l2.65-.36a1.3,1.3,0,0,1,.77,2.44c-3.66,1.88-4,5.46-3.77,8l.69,3A1.3,1.3,0,0,1,192,48Z"/><path class="cls-2" d="M191.94,48.08a1.29,1.29,0,0,1-.72-.22l-2.6-1.73c-2.28-1.16-5.76-2.08-8.82.67a1.3,1.3,0,0,1-2-1.59l1.28-2.35a4.86,4.86,0,0,1,3.08-2.4,4.33,4.33,0,0,1,3.48.58l4.24,2.81a14.34,14.34,0,0,1,2.92,2,1.3,1.3,0,0,1-.86,2.27Z"/><path class="cls-2" d="M140.78,134.82a4.76,4.76,0,1,1,4.34-4.74A4.56,4.56,0,0,1,140.78,134.82Zm0-6.88a2.19,2.19,0,1,0,1.75,2.14A2,2,0,0,0,140.78,127.94Z"/><path class="cls-2" d="M168.16,163c-12.86,0-24.07-4.12-32.47-11.95s-14.22-19.68-16.57-34a2.39,2.39,0,0,1,.74-2.1c4.37-4.37,33.59-4,37.92-3.33a30.35,30.35,0,0,0,28-10c10.25-11.81,11.91-31.07,4.68-54.24a1.29,1.29,0,0,1-.06-.39,2.86,2.86,0,0,0,0-.33,1.3,1.3,0,0,1,1.91-1.28,57.88,57.88,0,0,1,22.32,22.35,67.54,67.54,0,0,1,8.68,33.09c.15,33.78-24.1,61.71-54.06,62.25ZM121.7,116.73c4.6,27.82,21.5,43.68,46.43,43.68h1.08c28.55-.52,51.66-27.27,51.51-59.64-.1-21.37-10.6-41.26-27-51.6,6.58,22.91,4.48,42-6,54.1a32.94,32.94,0,0,1-30.4,10.88c-2.47-.4-11.2-.55-19.19-.15C126.48,114.59,122.35,116,121.7,116.73Z"/><path class="cls-2" d="M155.56,161l-1-2.4a25.13,25.13,0,0,0,15.83-23.07c0-9-5.35-17.13-14.31-21.66l1.17-2.32c9.85,5,15.73,13.95,15.73,24A27.72,27.72,0,0,1,155.56,161Z"/><path class="cls-2" d="M194.13,85.75c-.19-.22-4.79-5.44-8.4-7.84a1.3,1.3,0,0,1,.61-2.37c.05,0,5.52-.54,8.86-4.61l2,1.65a15.83,15.83,0,0,1-7.71,4.94A68.75,68.75,0,0,1,196.08,84Z"/><path class="cls-2" d="M203.12,172.07a1.29,1.29,0,0,1-.44-.08l-27-9.69.88-2.44,23.83,8.54c-2-4.37-4.32-12.73,1.08-21.37l2.2,1.38c-6.87,11,.23,21.18.54,21.61a1.3,1.3,0,0,1-1.06,2.05Z"/><path class="cls-2" d="M182.67,153.23a1.3,1.3,0,0,1-.25-2.57,7.34,7.34,0,0,0-2.88-14.39,1.3,1.3,0,1,1-.51-2.55,9.93,9.93,0,0,1,3.9,19.48Z"/><path class="cls-2" d="M179.28,136.3a1.3,1.3,0,0,1-.25-2.57,7.34,7.34,0,1,0-2.88-14.39,1.3,1.3,0,1,1-.51-2.55,9.93,9.93,0,1,1,3.9,19.48Z"/><path class="cls-2" d="M195.09,140.55a1.3,1.3,0,0,1-.25-2.57,6.46,6.46,0,0,0-2.54-12.67,1.3,1.3,0,0,1-.51-2.55,9.05,9.05,0,0,1,3.56,17.76Z"/></svg>