<svg id="Warstwa_1" data-name="Warstwa 1" xmlns="http://www.w3.org/2000/svg" viewBox="0 0 300 205"><defs><style>.cls-1{fill:#fff;}.cls-2{fill:#f42742;}</style></defs><title>horoskop</title><rect class="cls-1" width="300" height="205"/><path class="cls-2" d="M144.43,88.49a4.64,4.64,0,0,1-2.08-.49l-2.2-1.11a1.3,1.3,0,0,1,.74-2.45c3.69.46,5.82-2,6.92-4.07l1.06-2.67a1.3,1.3,0,0,1,2.47.79,13.29,13.29,0,0,1-1.19,3l-1.73,4.35A4.09,4.09,0,0,1,146,88.2,4.49,4.49,0,0,1,144.43,88.49Z"/><path class="cls-2" d="M155.68,88.49a4.49,4.49,0,0,1-1.6-.29,4.09,4.09,0,0,1-2.39-2.32L150,81.52a13.29,13.29,0,0,1-1.19-3,1.3,1.3,0,0,1,2.47-.79l1.06,2.66c1.1,2,3.22,4.53,6.92,4.07a1.3,1.3,0,0,1,.74,2.45L157.76,88A4.64,4.64,0,0,1,155.68,88.49Z"/><path class="cls-2" d="M171.32,118.92A18,18,0,0,1,163.1,117a1.3,1.3,0,0,1,1.16-2.32c3.43,1.71,7.14,2.07,11.67,1.13a1.3,1.3,0,0,1,.53,2.54A25.3,25.3,0,0,1,171.32,118.92Z"/><path class="cls-2" d="M172.76,101.21a15.41,15.41,0,0,1-7.57-1.93A1.3,1.3,0,1,1,166.43,97c3.08,1.68,6.41,2,10.48,1.11a1.3,1.3,0,0,1,.58,2.53A21.33,21.33,0,0,1,172.76,101.21Z"/><path class="cls-2" d="M172.76,110.07a15.41,15.41,0,0,1-7.57-1.94,1.3,1.3,0,1,1,1.24-2.28c3.08,1.68,6.41,2,10.48,1.11a1.3,1.3,0,0,1,.58,2.53A21.31,21.31,0,0,1,172.76,110.07Z"/><path class="cls-2" d="M128.78,118.92a25.3,25.3,0,0,1-5.13-.56,1.3,1.3,0,1,1,.53-2.54c4.53.94,8.23.58,11.67-1.13A1.3,1.3,0,0,1,137,117,18,18,0,0,1,128.78,118.92Z"/><path class="cls-2" d="M127.33,101.21a21.31,21.31,0,0,1-4.73-.57,1.3,1.3,0,0,1,.58-2.53c4.07.93,7.4.57,10.48-1.11a1.3,1.3,0,1,1,1.24,2.28A15.41,15.41,0,0,1,127.33,101.21Z"/><path class="cls-2" d="M127.33,110.07a21.31,21.31,0,0,1-4.73-.57,1.3,1.3,0,0,1,.58-2.53c4.07.93,7.4.57,10.48-1.11a1.3,1.3,0,0,1,1.24,2.28A15.41,15.41,0,0,1,127.33,110.07Z"/><path class="cls-2" d="M181.88,84.56h-.17c-1.77-.13-11-.82-19.39-2.3l.45-2.56c8.08,1.42,17,2.11,19,2.26,3.88-4.19,5.4-14.13,5.78-17.09l1.27.16h1.32v.17c-.52,4.09-2.21,14.1-6.58,18.67A2.3,2.3,0,0,1,181.88,84.56Z"/><path class="cls-2" d="M157.92,87.45l-1.46-.57c-1-.42-2-.8-2.79-1.17l-.91-.4,1.08-2.36.87.39c.83.37,1.71.74,2.72,1.14l1.4.54Z"/><path class="cls-2" d="M182.05,93.16h-.26a99.5,99.5,0,0,1-17.4-3.51l.74-2.49A96.86,96.86,0,0,0,182,90.56c1.71-1.42,9.45-8.61,14.21-25.74l1.24.34h1.31v.18l0,.18c-5,18.17-13.5,25.79-15.15,27.13A2.37,2.37,0,0,1,182.05,93.16Z"/><path class="cls-2" d="M188,66c-3.74-3.13-7.1-9.07-9-15.9a40.08,40.08,0,0,1-1.53-12,1.82,1.82,0,0,1,2.91-1.39l8,6,3.57-8.7a1.82,1.82,0,0,1,3.23-.27,40.44,40.44,0,0,1,4.55,10.59c2.46,8.9,1.94,17.58-1.31,21.6l-1-.81h-1.3V64.7l.29-.36c2.7-3.34,3-11.27.83-19.28a39.12,39.12,0,0,0-3.46-8.58l-3.36,8.18a1.82,1.82,0,0,1-2.77.77l-7.6-5.67a38.85,38.85,0,0,0,1.45,9.66c1.75,6.34,4.8,11.79,8.16,14.6l.47.39V65h-1.3Z"/><path class="cls-2" d="M118.12,84.56a2.3,2.3,0,0,1-1.67-.71c-4.37-4.57-6.06-14.57-6.58-18.66V65h1.32l1.27-.16c.38,3,1.91,12.91,5.78,17.09,2-.14,10.91-.83,19-2.26l.45,2.56c-8.38,1.48-17.62,2.18-19.39,2.3Z"/><path class="cls-2" d="M142.08,87.45l-.9-2.43,1.4-.54c1-.4,1.89-.77,2.69-1.13l.89-.4,1.08,2.36-.94.41c-.81.36-1.73.75-2.77,1.16Z"/><path class="cls-2" d="M117.95,93.16a2.37,2.37,0,0,1-1.48-.52c-1.65-1.35-10.11-9-15.15-27.13l0-.17v-.18h1.31l1.24-.34C108.56,81.94,116.3,89.13,118,90.56a96.88,96.88,0,0,0,16.84-3.41l.74,2.49a99.5,99.5,0,0,1-17.4,3.51Z"/><path class="cls-2" d="M112,66l-.83-1h-1.3v-.61l.47-.39c3.35-2.8,6.4-8.26,8.16-14.6a38.84,38.84,0,0,0,1.45-9.66l-7.6,5.67a1.82,1.82,0,0,1-2.77-.77l-3.36-8.18a39.12,39.12,0,0,0-3.46,8.58c-2.22,8-1.88,15.93.83,19.28l.29.36v.46h-1.3l-1,.81c-3.25-4-3.78-12.7-1.31-21.6a40.44,40.44,0,0,1,4.55-10.59,1.82,1.82,0,0,1,3.23.27l3.57,8.69,8-6a1.82,1.82,0,0,1,2.91,1.39,40.08,40.08,0,0,1-1.53,12C119.09,56.94,115.73,62.89,112,66Z"/><path class="cls-2" d="M162.82,172.07a4.33,4.33,0,0,1-3.1-1.17,3.35,3.35,0,0,1-.34-.39l2.09-1.54.07.08a1.88,1.88,0,0,0,1.41.42c2-.08,4.71-1.78,6.93-4.33a17.69,17.69,0,0,0,1.94-2.68l-5.07.63.18-5.65a17.7,17.7,0,0,0-4.9,6l-2.33-1.14a19.54,19.54,0,0,1,2.87-4.27,17.67,17.67,0,0,1,5.16-4.16l2-1-.24,7.28,6.57-.81-.78,2a18.75,18.75,0,0,1-3.4,5.5c-2.71,3.11-6.07,5.11-8.78,5.22Z"/><path class="cls-2" d="M149.9,145.62a5.18,5.18,0,0,1-2.65-.74c-2.65-1.55-4.37-5.29-4.37-9.52a12.33,12.33,0,0,1,2.87-8.32,1.3,1.3,0,1,1,1.89,1.78,9.72,9.72,0,0,0-2.16,6.54c0,3.23,1.27,6.22,3.08,7.28a2.56,2.56,0,0,0,2.84-.11c1.74-1.15,2.91-4,2.91-7.18a9.83,9.83,0,0,0-2.1-6.47,1.3,1.3,0,0,1,1.92-1.75,12.28,12.28,0,0,1,2.78,8.22c0,4-1.6,7.7-4.08,9.34A5.25,5.25,0,0,1,149.9,145.62Z"/><path class="cls-2" d="M149,160.45a1.29,1.29,0,0,1-.37-.05c-3.08-.91-5.17-4.76-5.08-9.38.06-3.55,1.44-6.73,3.59-8.3a1.3,1.3,0,1,1,1.53,2.1c-1.49,1.09-2.48,3.54-2.53,6.25-.07,3.67,1.58,6.37,3.22,6.85a1.3,1.3,0,0,1-.37,2.54Z"/><path class="cls-2" d="M153.71,158.15a1.3,1.3,0,0,1-1.09-2,9.66,9.66,0,0,0,1.34-4.93c0-2.87-1-5.5-2.54-6.52a1.3,1.3,0,1,1,1.42-2.17c2.32,1.52,3.78,5,3.71,8.74a12.28,12.28,0,0,1-1.75,6.28A1.3,1.3,0,0,1,153.71,158.15Z"/><path class="cls-2" d="M157.65,172.07h-.26a10.41,10.41,0,0,1-6.92-3.62c-2.75-3-3.83-7-2.67-9.78a1.3,1.3,0,0,1,1.6-.74,1.83,1.83,0,0,0,.53.08h0a3.38,3.38,0,0,0,2.64-1.85,1.3,1.3,0,0,1,1.32-.58,10.76,10.76,0,0,1,6,3.51,12.56,12.56,0,0,1,2.16,3.23c1.49,3.2,1.27,6.36-.58,8.24h0l-.18.16A5.24,5.24,0,0,1,157.65,172.07Zm2-3.33h0l.94.9ZM150,160.6a8.43,8.43,0,0,0,2.42,6.1,7.81,7.81,0,0,0,5.1,2.77,2.8,2.8,0,0,0,2.05-.67l.08-.07c1.05-1.07,1.08-3.16.08-5.33a10.13,10.13,0,0,0-1.72-2.57,8.82,8.82,0,0,0-3.72-2.51A5.55,5.55,0,0,1,150,160.6Z"/><path class="cls-2" d="M150.06,129.9C140.49,129.9,133,116.32,133,99a52.45,52.45,0,0,1,2.13-15.08,36.17,36.17,0,0,1,2.7-6.6,23.68,23.68,0,0,1,3.35-4.81q0-.16,0-.32a20.79,20.79,0,0,1,1.15-6.94,2.35,2.35,0,0,1,3.51-1.16l4.43,3,4.12-2.7a2.34,2.34,0,0,1,2.06-.25,2.3,2.3,0,0,1,1.44,1.45,21,21,0,0,1,1,6.64q0,.16,0,.32a22.7,22.7,0,0,1,2.85,3.92h0l.37.67a36.05,36.05,0,0,1,2.77,6.63A52.33,52.33,0,0,1,167.11,99C167.11,116.32,159.62,129.9,150.06,129.9Zm-5.39-63.46a18.36,18.36,0,0,0-.89,5.77c0,.26,0,.52,0,.77l0,.56-.39.4a20.51,20.51,0,0,0-3.3,4.63,33.57,33.57,0,0,0-2.51,6.12,49.82,49.82,0,0,0-2,14.32c0,15.34,6.62,28.3,14.46,28.3s14.46-13,14.46-28.3a49.71,49.71,0,0,0-2.07-14.49,33.89,33.89,0,0,0-2.38-5.81l-.19-.35a20.23,20.23,0,0,0-3.19-4.43l-.37-.38V73c0-.3,0-.56,0-.81a18.6,18.6,0,0,0-.8-5.48l-4,2.61a2.34,2.34,0,0,1-2.59,0Z"/></svg>