<svg id="Warstwa_1" data-name="Warstwa 1" xmlns="http://www.w3.org/2000/svg" viewBox="0 0 300 205"><defs><style>.cls-1{fill:#fff;}.cls-2{fill:#f42742;}</style></defs><title>horoskop</title><rect class="cls-1" width="300" height="205"/><path class="cls-2" d="M212.45,103.15c-.33,0-.66,0-1,0-4.34-.32-8.37-2.71-12-7.11-1.74-2.12-3.46-4.57-5.29-7.16-9.36-13.3-20-28.38-43.09-16.55a1.25,1.25,0,0,1-.61.14l-1.54,0a1.3,1.3,0,0,1-.57-.14c-23-11.74-33.3,3.16-42.43,16.3-1.87,2.69-3.63,5.23-5.44,7.43-3.61,4.4-7.64,6.79-12,7.11a15.72,15.72,0,0,1-10.87-3.7,1.3,1.3,0,0,1,1.28-2.19c.06,0,9.67,2.18,24.31-27.84C108.39,58.85,115,53,122.85,51.91c12.67-1.71,24.34,9.61,27.14,12.57,2.82-3,14.48-14.26,27.14-12.56,7.87,1.06,14.46,6.93,19.6,17.46,14.65,30,24.25,27.86,24.35,27.83a1.28,1.28,0,0,1,1.51.59,1.31,1.31,0,0,1-.27,1.62A15.89,15.89,0,0,1,212.45,103.15Zm-46-37.72A24.51,24.51,0,0,1,179.13,69c7.26,4.29,12.53,11.78,17.18,18.39,1.79,2.55,3.49,5,5.17,7,3.14,3.83,6.56,5.9,10.16,6.17a12.08,12.08,0,0,0,6-1.18,16.29,16.29,0,0,1-4-2.11C207.41,92.94,200.95,84,194.4,70.52c-4.73-9.69-10.65-15.08-17.6-16-12.86-1.74-25.35,12.24-25.48,12.38a1.36,1.36,0,0,1-1,.44h-.7a1.3,1.3,0,0,1-1-.44c-.12-.14-12.62-14.12-25.48-12.38-7,.94-12.87,6.33-17.6,16C99,83.94,92.58,92.93,86.39,97.23a16.32,16.32,0,0,1-4,2.1,12.06,12.06,0,0,0,6,1.19c3.59-.28,7-2.35,10.14-6.17,1.74-2.12,3.47-4.62,5.31-7.26,4.56-6.57,9.73-14,16.86-18.23,8.27-4.9,17.63-4.58,28.61,1l.92,0C156,66.9,161.41,65.43,166.44,65.43Z"/><path class="cls-2" d="M150.56,141.78,94.3,101a1.3,1.3,0,1,1,1.52-2.1l54.72,39.71,8.55-6.22,46-33.5a1.3,1.3,0,0,1,1.61,2l-.07.06Z"/><path class="cls-2" d="M150.2,163.91a1.3,1.3,0,0,1-1.3-1.3L148.7,52.68a1.3,1.3,0,0,1,1.3-1.3h0a1.3,1.3,0,0,1,1.3,1.3l.21,109.94a1.3,1.3,0,0,1-1.3,1.3Z"/><polygon class="cls-2" points="154.77 53.32 150.08 33.58 145.43 53.37 154.77 53.32"/><path class="cls-2" d="M143.84,171.42a4.91,4.91,0,0,1-2.22-.53l-2.38-1.21a1.3,1.3,0,0,1,.75-2.44c4,.52,6.37-2.13,7.58-4.36l1.19-3a1.3,1.3,0,0,1,2.46.8,14.29,14.29,0,0,1-1.29,3.25L148,168.67a4.33,4.33,0,0,1-2.54,2.45A4.75,4.75,0,0,1,143.84,171.42Z"/><path class="cls-2" d="M156.21,171.42a4.75,4.75,0,0,1-1.67-.3,4.33,4.33,0,0,1-2.54-2.45L150.11,164a14.3,14.3,0,0,1-1.29-3.25,1.3,1.3,0,0,1,2.46-.8l1.16,2.89c1.21,2.24,3.55,5,7.61,4.44a1.3,1.3,0,0,1,.75,2.44l-2.38,1.21A4.91,4.91,0,0,1,156.21,171.42Z"/><path class="cls-2" d="M143.78,162.14a4.91,4.91,0,0,1-2.22-.53l-2.38-1.21a1.3,1.3,0,0,1,.75-2.44c4.06.52,6.4-2.2,7.61-4.43l1.16-2.89a1.3,1.3,0,0,1,2.46.8,14.3,14.3,0,0,1-1.29,3.25L148,159.39a4.33,4.33,0,0,1-2.54,2.45A4.75,4.75,0,0,1,143.78,162.14Z"/><path class="cls-2" d="M156.15,162.14a4.75,4.75,0,0,1-1.67-.3,4.33,4.33,0,0,1-2.54-2.45l-1.89-4.71a14.3,14.3,0,0,1-1.29-3.25,1.3,1.3,0,0,1,2.46-.8l1.16,2.89c1.21,2.24,3.55,5,7.61,4.44a1.3,1.3,0,0,1,.75,2.44l-2.38,1.21A4.91,4.91,0,0,1,156.15,162.14Z"/></svg>