<svg id="Warstwa_1" data-name="Warstwa 1" xmlns="http://www.w3.org/2000/svg" viewBox="0 0 300 205"><defs><style>.cls-1{fill:#fff;}.cls-2{fill:#f42742;}</style></defs><title>horoskop</title><rect class="cls-1" width="300" height="205"/><path class="cls-2" d="M149.72,147c-10.24,0-18.91-7-20.62-16.62a19.46,19.46,0,0,1-.26-2.2l-.44-7.28,2.59-.16.44,7.28a16.88,16.88,0,0,0,.23,1.91c1.49,8.39,9.09,14.47,18.07,14.47,9.7,0,17.74-7.19,18.29-16.38l.44-7.29,2.59.16-.44,7.29C170,138.7,160.79,147,149.72,147Z"/><path class="cls-2" d="M149.58,123.59a1.3,1.3,0,0,1-1.26-1.61,11.65,11.65,0,0,1,1-2.64l1.49-3.75a3.71,3.71,0,0,1,2.16-2.11,4.13,4.13,0,0,1,3.32.18l1.9,1a1.3,1.3,0,0,1-.74,2.45c-3.06-.38-4.82,1.63-5.75,3.34l-.94,2.36A1.3,1.3,0,0,1,149.58,123.59Z"/><path class="cls-2" d="M149.61,123.59a1.3,1.3,0,0,1-1.21-.82l-.91-2.28c-.93-1.72-2.7-3.8-5.78-3.41a1.3,1.3,0,0,1-.74-2.45l1.9-1a4.13,4.13,0,0,1,3.31-.18,3.71,3.71,0,0,1,2.16,2.11l1.49,3.75a11.64,11.64,0,0,1,1,2.64,1.3,1.3,0,0,1-1.26,1.61Z"/><path class="cls-2" d="M140.54,134a26.6,26.6,0,0,1-10.76-2.69L131,129c.08,0,8.17,4.09,13.94,1.58,1.7-.74,3.46-6.06,3.51-8.72l2.6.05c0,2.46-1.68,9.58-5.07,11.05A13.46,13.46,0,0,1,140.54,134Z"/><path class="cls-2" d="M158.76,134a13.46,13.46,0,0,1-5.4-1c-3.39-1.48-5-8.6-5.07-11.05l2.6-.05c.05,2.67,1.81,8,3.51,8.72,5.79,2.52,13.85-1.54,13.93-1.58l1.18,2.31A26.6,26.6,0,0,1,158.76,134Z"/><path class="cls-2" d="M150.35,172.07h-.7c-19.29,0-31.33-22.76-32.75-25.59-11-9.3-16.64-20.32-16.84-32.75-.14-9,2.54-18.47,8-28.17l2.26,1.27c-8.82,15.73-14.51,38.53,8.47,57.84l.21.18.12.25c.12.24,12,24.38,30.54,24.38h.7c18.5,0,30.42-24.13,30.54-24.38l.12-.25.21-.18c23-19.32,17.29-42.12,8.47-57.84L192,85.56c5.44,9.7,8.13,19.18,8,28.17-.2,12.43-5.87,23.45-16.84,32.75C181.68,149.31,169.64,172.07,150.35,172.07Z"/><path class="cls-2" d="M192.18,87.55q-.72,0-1.45-.07a1.3,1.3,0,0,1,.1-2.59H191a12.09,12.09,0,0,0,12.74-8.12,11.84,11.84,0,0,0-1.45-10.25c-2.78-4.58-6.69-6.37-12-5.47a1.3,1.3,0,0,1-.44-2.56c6.27-1.07,11.32,1.24,14.62,6.68a14.33,14.33,0,0,1,1.69,12.42A14.63,14.63,0,0,1,192.18,87.55Z"/><path class="cls-2" d="M197.19,74.91a1.29,1.29,0,0,1-.54-.12,7.55,7.55,0,0,0-4.41-.86,1.3,1.3,0,1,1-.47-2.55,10,10,0,0,1,6,1.05,1.3,1.3,0,0,1-.55,2.48Z"/><path class="cls-2" d="M107.83,87.55a14.63,14.63,0,0,1-14-10,14.33,14.33,0,0,1,1.69-12.42c3.2-5.28,8.07-7.61,14.09-6.76a1.3,1.3,0,0,1-.37,2.57c-5-.72-8.81,1.09-11.51,5.54A11.84,11.84,0,0,0,96.3,76.78,12.09,12.09,0,0,0,109,84.9a1.3,1.3,0,1,1,.25,2.58C108.8,87.53,108.31,87.55,107.83,87.55Z"/><path class="cls-2" d="M102.81,74.91a1.3,1.3,0,0,1-.54-2.48,10.36,10.36,0,0,1,5.65-1.1,1.3,1.3,0,0,1-.34,2.57,7.86,7.86,0,0,0-4.22.89A1.3,1.3,0,0,1,102.81,74.91Z"/><path class="cls-2" d="M129.81,122.09h-.23c-5.82-.37-8.86-14.38-8.86-28.07,0-11.45,2.06-21.56,5.26-25.78,2.52-4,12.26-6.86,23.75-6.86,12,0,21.66,3,24,7.44v0a1.68,1.68,0,0,1,.18.38l.06.19v.2h-1.29l-.89,1-.25-.58-.09,0a.94.94,0,0,0,.07.16l-.09-.17c-1.59-2.93-9.73-6-21.73-6-11.79,0-19.91,2.92-21.56,5.67l-.08.12c-2.85,3.71-4.77,13.46-4.77,24.26,0,15.58,3.76,25.34,6.45,25.48h.08c2.66-.11,6.47-10,6.47-25.48q0-.45,0-.9a7.69,7.69,0,0,1-7.46-5.36l-.22-.84.7-.53a7.92,7.92,0,0,1,3.91-1.68A4.92,4.92,0,0,1,137,85.89a5.24,5.24,0,0,1,1.81,3.72q0,1.06.08,2.14c0,.75,0,1.51,0,2.27C138.9,108,135.78,122.09,129.81,122.09Zm1.9-34.18a5.13,5.13,0,0,0,4.53,2.6q0-.4,0-.79a2.63,2.63,0,0,0-.91-1.87,2.35,2.35,0,0,0-1.79-.57A4.68,4.68,0,0,0,131.71,87.91Z"/><path class="cls-2" d="M169.49,122.09c-6,0-9.09-14.13-9.09-28.08,0-.76,0-1.53,0-2.27s0-1.43.08-2.13a5.2,5.2,0,0,1,1.9-3.78,5,5,0,0,1,4-1.09A8.09,8.09,0,0,1,170,86.39l.7.53-.22.84A7.69,7.69,0,0,1,163,93.11q0,.45,0,.9c0,15.59,3.87,25.54,6.52,25.48h.1c2.67-.3,6.38-10.14,6.38-25.47,0-10.16-1.68-19.38-4.3-23.58l-.29-.27v-.57h1.3l.89-.94.12.11.09.14c3,4.59,4.8,14.22,4.8,25.12,0,13.43-3,27.37-8.66,28.05A3,3,0,0,1,169.49,122.09Zm-3.9-34.81a2.43,2.43,0,0,0-1.55.56,2.6,2.6,0,0,0-.95,1.89q0,.39,0,.78a5.14,5.14,0,0,0,4.54-2.6,4.81,4.81,0,0,0-1.63-.6Z"/><path class="cls-2" d="M107.91,86.51c-.25-1-6-24.19,6.67-39.91C122.31,37,135.18,32.4,152.84,33l-.08,2.59C136,35,123.8,39.28,116.61,48.22c-11.82,14.7-6.24,37.43-6.18,37.65Z"/><path class="cls-2" d="M192.1,86.49l-2.53-.59c.05-.23,5.18-22.89-6.88-37.6C175.32,39.31,163,35,146.2,35.57L146.12,33c17.7-.57,30.68,4,38.59,13.69C197.57,62.38,192.32,85.51,192.1,86.49Z"/></svg>