<svg id="Warstwa_1" data-name="Warstwa 1" xmlns="http://www.w3.org/2000/svg" viewBox="0 0 300 205"><defs><style>.cls-1{fill:#fff;}.cls-2{fill:#f42742;}</style></defs><title>horoskop</title><rect class="cls-1" width="300" height="205"/><path class="cls-2" d="M155.8,88.2H144.21a1.3,1.3,0,1,1,0-2.6H155.8a1.3,1.3,0,0,1,0,2.6Z"/><path class="cls-2" d="M127.05,95.16a1.29,1.29,0,0,1-1.3-1.24l-.29-3.28a2.37,2.37,0,0,1,0-.41,1.3,1.3,0,0,1,2.59,0h0s0,0,0,.07l.3,3.37s0,.08,0,.11A1.31,1.31,0,0,1,127.05,95.16Z"/><path class="cls-2" d="M172.92,95.15l-.25,0a1.28,1.28,0,0,1-1-1.48l.28-3.23a1.3,1.3,0,0,1,2.59.22l-.28,3.3a1.24,1.24,0,0,1,0,.15A1.33,1.33,0,0,1,172.92,95.15Z"/><path class="cls-2" d="M131.6,119.57a4,4,0,0,1-3.94-3.64L125.76,94l2.59-.22,1.2,13.92c3.06-1.53,6.43-1.12,8.12,1.14,2,2.67.89,6.74-2.51,9.27a9.41,9.41,0,0,1-2.07,1.17A3.92,3.92,0,0,1,131.6,119.57Zm-1.8-9,.45,5.16a1.37,1.37,0,0,0,.66,1.06,1.33,1.33,0,0,0,1.21.1,6.82,6.82,0,0,0,1.5-.85c2.15-1.61,3.06-4.19,2-5.64S131.94,109,129.8,110.55Z"/><path class="cls-2" d="M168.4,119.7a3.82,3.82,0,0,1-1.17-.18,9.27,9.27,0,0,1-2.76-1.43c-3.39-2.53-4.49-6.6-2.5-9.27,1.74-2.34,5.3-2.69,8.45-1l1.22-14.09a1.3,1.3,0,1,1,2.59.22l-1.91,22.08a4,4,0,0,1-1.77,3A3.86,3.86,0,0,1,168.4,119.7Zm-2-10.34a2.82,2.82,0,0,0-2.34,1c-1.08,1.45-.18,4,2,5.64a6.79,6.79,0,0,0,2,1,1.25,1.25,0,0,0,1.09-.16,1.4,1.4,0,0,0,.62-1.05l.44-5.11a1.29,1.29,0,0,1-.3-.16A6.18,6.18,0,0,0,166.4,109.36Z"/><path class="cls-2" d="M179.67,106.36a1.3,1.3,0,0,1-.33-2.55C188.69,101.33,197.92,86,198.25,76v-.05c.14-2-.07-6.38-1.67-7.5-.21-.14-.83-.58-2.41.13a18.08,18.08,0,0,0-5.64,4.14,38,38,0,0,0-6.13,9c-.58,1.13-1.15,2.33-1.71,3.57-3.34,7.34-5.89,9.36-7.44,9.77a1.3,1.3,0,0,1-.66-2.51c.09,0,2.24-.67,5.73-8.33.58-1.27,1.17-2.51,1.76-3.67a40.56,40.56,0,0,1,6.56-9.65,20.64,20.64,0,0,1,6.45-4.71c2.42-1.09,4-.54,5,.11,3.2,2.24,2.83,8.9,2.77,9.79-.37,11-10.25,27.4-20.84,30.21A1.31,1.31,0,0,1,179.67,106.36Z"/><path class="cls-2" d="M178.48,101h0a1.3,1.3,0,0,1-1.3-1.3c0-11.51,3.18-21.17,9.41-28.69a1.3,1.3,0,0,1,2,1.66c-5.83,7-8.8,16.14-8.81,27A1.3,1.3,0,0,1,178.48,101Z"/><path class="cls-2" d="M120.08,106.32c-10.69-2.84-20.66-19.24-21-30.21-.06-.89-.43-7.55,2.77-9.79.93-.65,2.54-1.2,5-.11a20.64,20.64,0,0,1,6.45,4.71,40.56,40.56,0,0,1,6.56,9.65c.59,1.15,1.18,2.39,1.76,3.67,3.5,7.69,5.64,8.33,5.73,8.36l-.27,1,.21,1.52a1.67,1.67,0,0,1-.32,0h-.12l-.16,0c-1.54-.4-4.09-2.43-7.44-9.79-.56-1.25-1.14-2.45-1.71-3.56a38,38,0,0,0-6.13-9,18.08,18.08,0,0,0-5.64-4.14c-1.58-.71-2.2-.27-2.41-.13-1.6,1.12-1.82,5.54-1.67,7.5V76c.36,10.93,10.35,25.49,19.1,27.81ZM127,92.56h-.09l.09.63Z"/><path class="cls-2" d="M150,165.06a19.6,19.6,0,0,1-19.63-18l0-.39a62.86,62.86,0,0,0-8-25.06A28.73,28.73,0,0,1,119.21,111a31.91,31.91,0,0,1-.09-6.08,22.81,22.81,0,0,1,1.38-6.31c-.18-7.06-1.94-17.24-9.2-26a1.3,1.3,0,0,1,2-1.66c7.82,9.43,9.64,20.35,9.8,27.86v0a1.3,1.3,0,0,1-.11.53,19.94,19.94,0,0,0-1.28,5.77,29.34,29.34,0,0,0,.08,5.58,26.1,26.1,0,0,0,2.84,9.6,65.44,65.44,0,0,1,8.28,26.09l0,.39a17,17,0,0,0,17,15.63,17.44,17.44,0,0,0,17.09-16,65.34,65.34,0,0,1,8.28-26.09,26.1,26.1,0,0,0,2.84-9.6,25.18,25.18,0,0,0-.94-10.65,1.3,1.3,0,1,1,2.48-.78,27.88,27.88,0,0,1,1,11.71,28.73,28.73,0,0,1-3.15,10.58,62.76,62.76,0,0,0-8,25.06A20.05,20.05,0,0,1,150,165.06Z"/><path class="cls-2" d="M174.5,90.71l-2.57-.36c2.22-15.87,8.06-28.16,17.37-36.53,9.07-8.15,17.63-9.13,18.58-9.21a1.07,1.07,0,0,0,.58-.23,1,1,0,0,0,.34-.51,1.2,1.2,0,0,0-.18-1,.65.65,0,0,0-.52-.3h-.4c-35.5,0-49.57,38-50.69,45l-2.56-.41c.52-3.26,4.07-15.19,13.27-26.78,7.46-9.39,20.5-20.56,40.4-20.4a3.24,3.24,0,0,1,2.59,1.36,3.78,3.78,0,0,1,.58,3.31,3.58,3.58,0,0,1-1.2,1.78,3.66,3.66,0,0,1-2,.8C200.36,47.89,179.21,57.07,174.5,90.71Z"/><path class="cls-2" d="M125.5,90.7c-4.7-33.64-25.86-42.82-33.61-43.51a3.68,3.68,0,0,1-2-.81,3.58,3.58,0,0,1-1.19-1.78,3.78,3.78,0,0,1,.58-3.31,3.24,3.24,0,0,1,2.59-1.36c19.87-.14,32.94,11,40.4,20.4,9.2,11.58,12.76,23.51,13.27,26.78l-2.56.41c-1.11-7-15.19-45-50.69-45h-.4a.65.65,0,0,0-.52.3,1.2,1.2,0,0,0-.18,1,1,1,0,0,0,.33.5,1.09,1.09,0,0,0,.59.24c.94.08,9.51,1.06,18.57,9.21,9.31,8.36,15.15,20.65,17.37,36.53Z"/><path class="cls-2" d="M149.57,151.62a1.3,1.3,0,0,1-1.26-1.61,13,13,0,0,1,1.17-2.94l1.69-4.22a4,4,0,0,1,2.35-2.27,4.49,4.49,0,0,1,3.6.21l2.13,1.08a1.3,1.3,0,0,1-.75,2.44c-3.57-.46-5.62,1.93-6.69,3.91l-1,2.58A1.3,1.3,0,0,1,149.57,151.62Z"/><path class="cls-2" d="M149.47,151.62a1.3,1.3,0,0,1-1.2-.81l-1-2.58c-1.07-2-3.13-4.37-6.69-3.91a1.3,1.3,0,0,1-.75-2.44l2.13-1.08a4.49,4.49,0,0,1,3.6-.21,4,4,0,0,1,2.35,2.27l1.69,4.22a13,13,0,0,1,1.17,2.94,1.3,1.3,0,0,1-1.26,1.61Z"/><path class="cls-2" d="M149.52,157.15A11.47,11.47,0,0,1,142.6,155a1.3,1.3,0,1,1,1.59-2.05c2.69,2.09,8,2.09,10.67,0a1.3,1.3,0,0,1,1.59,2.05A11.48,11.48,0,0,1,149.52,157.15Z"/><path class="cls-2" d="M166.21,97a1.3,1.3,0,0,1-.36-.05c-8.17-2.39-23.62-2.39-31.8,0a1.3,1.3,0,1,1-.73-2.49c8.55-2.5,24.71-2.5,33.25,0a1.3,1.3,0,0,1-.36,2.54Z"/></svg>